<?xml version="1.0" encoding="UTF-8"?>
<svg version="1.1" xmlns="http://www.w3.org/2000/svg" width="744" height="536">
<path d="M0 0 C2.66892958 3.39681946 2.83500548 5.52406348 2.609375 9.7734375 C0.95030662 18.42429407 -4.32641648 26.83178248 -10.9375 32.625 C-11.5975 32.625 -12.2575 32.625 -12.9375 32.625 C-12.9375 33.285 -12.9375 33.945 -12.9375 34.625 C-14.1965332 35.85498047 -14.1965332 35.85498047 -15.98828125 37.2421875 C-16.65682129 37.76047119 -17.32536133 38.27875488 -18.01416016 38.81274414 C-18.7519873 39.36953857 -19.48981445 39.92633301 -20.25 40.5 C-21.39927979 41.36902954 -21.39927979 41.36902954 -22.57177734 42.25561523 C-45.52463163 59.36207556 -71.05206225 71.43540917 -97.0625 83.08203125 C-108.21706289 88.07896565 -119.32495382 93.14175486 -130.125 98.875 C-130.93001953 99.29523438 -131.73503906 99.71546875 -132.56445312 100.1484375 C-133.72944336 100.76332031 -133.72944336 100.76332031 -134.91796875 101.390625 C-135.59754639 101.74930664 -136.27712402 102.10798828 -136.97729492 102.47753906 C-139.02392151 103.61989731 -139.02392151 103.61989731 -141.0637207 105.26464844 C-142.9375 106.625 -142.9375 106.625 -144.9375 106.625 C-145.21078125 107.22441406 -145.4840625 107.82382813 -145.765625 108.44140625 C-146.90021965 110.55553428 -148.01582717 111.86835845 -149.6875 113.5625 C-163.43088165 129.51284805 -164.34413364 153.31463743 -165.91699219 173.29736328 C-166.72339652 183.53655566 -167.84408382 193.56244396 -169.9375 203.625 C-170.15575439 204.68726807 -170.15575439 204.68726807 -170.37841797 205.77099609 C-173.32863085 219.89767684 -177.44612975 233.18233099 -184.9375 245.625 C-185.47246094 246.51703125 -186.00742187 247.4090625 -186.55859375 248.328125 C-190.94060489 255.41220767 -195.87433768 262.02130186 -200.9375 268.625 C-201.47890625 269.39972656 -202.0203125 270.17445313 -202.578125 270.97265625 C-203.02671875 271.51792969 -203.4753125 272.06320312 -203.9375 272.625 C-204.5975 272.625 -205.2575 272.625 -205.9375 272.625 C-206.20361084 273.21418213 -206.46972168 273.80336426 -206.74389648 274.41040039 C-213.64315049 287.21120487 -229.30367179 297.38714164 -240.9375 305.625 C-241.58074219 306.08100586 -242.22398437 306.53701172 -242.88671875 307.00683594 C-247.16017549 310.00486409 -251.50969377 312.86055576 -255.9375 315.625 C-256.52724609 315.99544434 -257.11699219 316.36588867 -257.72460938 316.74755859 C-275.87223992 327.97356015 -296.38161231 336.04714072 -316.9375 341.625 C-317.86820313 341.88120117 -318.79890625 342.13740234 -319.7578125 342.40136719 C-361.68521791 353.74530292 -404.94550563 353.55787666 -446.9375 342.625 C-448.03118896 342.35115479 -448.03118896 342.35115479 -449.14697266 342.07177734 C-472.85890566 336.07597453 -494.68080522 325.1210229 -514.9375 311.625 C-515.741875 311.09261719 -516.54625 310.56023437 -517.375 310.01171875 C-518.9387008 308.9429797 -520.44818663 307.79517479 -521.9375 306.625 C-521.9375 305.965 -521.9375 305.305 -521.9375 304.625 C-522.5975 304.625 -523.2575 304.625 -523.9375 304.625 C-523.9375 303.965 -523.9375 303.305 -523.9375 302.625 C-524.5975 302.625 -525.2575 302.625 -525.9375 302.625 C-528.15497812 300.32223426 -528.90510006 299.10019908 -529.125 295.875 C-529.063125 295.1325 -529.00125 294.39 -528.9375 293.625 C-526.43707873 292.37478937 -524.23500792 292.46909881 -521.48071289 292.38574219 C-496.31081131 291.58184881 -472.2485569 284.03685359 -448.34179688 276.74731445 C-437.94474415 273.58503643 -437.94474415 273.58503643 -433.75 272.625 C-428.5393026 271.2582597 -423.62568048 269.30159381 -418.625 267.3125 C-417.65626953 266.93416016 -416.68753906 266.55582031 -415.68945312 266.16601562 C-409.96317711 263.90835777 -404.34729831 261.4795903 -398.75756836 258.90405273 C-393.67610144 256.59933408 -388.52080551 254.46866905 -383.375 252.3125 C-375.04692563 248.80711907 -366.74860447 245.25226903 -358.50708008 241.5480957 C-353.63793931 239.36460697 -348.74090643 237.2556652 -343.82788086 235.17285156 C-336.55025259 232.08626851 -329.35169702 228.96496337 -322.32421875 225.3359375 C-318.537128 223.42273595 -314.70936556 221.6087383 -310.87426758 219.79418945 C-301.4758932 215.34707913 -292.18531282 210.77083811 -283.05249023 205.79785156 C-279.08508848 203.65763036 -275.28966715 201.89696038 -270.9375 200.625 C-272.37981917 207.18099624 -274.75498069 210.62127391 -279.67578125 215.265625 C-282.75011163 217.11340906 -285.18399418 217.03227612 -288.75 217.125 C-295.61834666 217.49587645 -300.22398505 217.91148505 -305.25 222.9375 C-308.5121151 228.13272035 -309.41349842 232.35562718 -308.5390625 238.375 C-307.55156673 242.06849066 -305.85156956 245.12623727 -302.9375 247.625 C-298.61461124 249.47065889 -294.86374037 249.89654949 -290.1875 249.875 C-289.05828125 249.88015625 -287.9290625 249.8853125 -286.765625 249.890625 C-283.80292565 249.91568303 -283.80292565 249.91568303 -281.9375 247.625 C-280.39012449 247.00265519 -278.82461604 246.42478937 -277.25 245.875 C-270.10145653 243.09615868 -265.67887222 239.32008713 -261.9375 232.625 C-261.2775 232.625 -260.6175 232.625 -259.9375 232.625 C-259.79054688 232.09132813 -259.64359375 231.55765625 -259.4921875 231.0078125 C-258.16977214 226.61496147 -256.65391892 223.04362357 -254.0625 219.25 C-251.02194898 214.41999751 -249.55188135 209.53591942 -248.125 204.0625 C-247.8148999 202.87551514 -247.8148999 202.87551514 -247.49853516 201.66455078 C-246.51307602 197.6655261 -245.84651748 193.86527019 -245.56640625 189.75390625 C-245.26341648 186.71837919 -245.17476377 185.89673799 -243.109375 183.53125 C-242.31015625 183.0671875 -241.5109375 182.603125 -240.6875 182.125 C-239.78386719 181.56554687 -238.88023437 181.00609375 -237.94921875 180.4296875 C-236.95535156 179.83414063 -235.96148437 179.23859375 -234.9375 178.625 C-232.78039869 177.18338606 -230.634906 175.72428395 -228.5 174.25 C-227.95013428 173.87029053 -227.40026855 173.49058105 -226.83374023 173.09936523 C-211.36259416 162.31933794 -194.55422355 148.45376645 -189.0625 129.625 C-188.81002808 123.56567395 -190.54299297 119.10399625 -193.5625 114 C-195.66574194 110.3568845 -196.90995975 107.90382289 -195.9375 103.625 C-191.53859044 98.10498606 -185.41360038 95.39888228 -179.25 92.1875 C-171.67642808 88.1962135 -164.243075 84.08827975 -156.9375 79.625 C-154.13079882 77.94847632 -151.31584563 76.28610779 -148.5 74.625 C-147.48969727 74.02558594 -147.48969727 74.02558594 -146.45898438 73.4140625 C-141.62367904 70.56282142 -136.72093043 67.8544562 -131.78686523 65.17822266 C-127.06121888 62.60221699 -122.37335747 59.96002145 -117.6875 57.3125 C-116.18968994 56.46655273 -116.18968994 56.46655273 -114.66162109 55.60351562 C-107.80387519 51.71639091 -101.01549514 47.73470586 -94.2890625 43.625 C-91.74256408 42.1054112 -89.18917727 40.6540942 -86.58984375 39.23046875 C-81.90092062 36.64208048 -77.38610652 33.8219988 -72.875 30.9375 C-71.19801904 29.87353654 -69.52093411 28.80973694 -67.84375 27.74609375 C-65.49356993 26.25206378 -63.14412889 24.75692387 -60.796875 23.25830078 C-14.03380573 -6.56901545 -14.03380573 -6.56901545 0 0 Z " fill="#A70507" transform="translate(692.9375,110.375)"/>
<path d="M0 0 C-0.71054444 6.29651688 -4.54727861 8.81139652 -9.27001953 12.63867188 C-21.92297808 22.59533245 -35.40432668 31.40003054 -49 40 C-49.83901855 40.53093262 -50.67803711 41.06186523 -51.54248047 41.60888672 C-75.55024846 56.74431875 -100.1888165 70.9597767 -125.21875 84.3359375 C-126.21310059 84.86944824 -127.20745117 85.40295898 -128.23193359 85.95263672 C-130.09520627 86.94921243 -131.96244859 87.9384192 -133.83447266 88.91845703 C-141.88764273 93.22510537 -147.68199949 97.54743813 -152.25 105.625 C-153.21679688 107.28402344 -153.21679688 107.28402344 -154.203125 108.9765625 C-156.71101139 114.04135366 -157.75056459 119.52074004 -159 125 C-168.11122108 162.63460413 -180.35705558 197.94425122 -204 229 C-204.65742188 229.88171875 -205.31484375 230.7634375 -205.9921875 231.671875 C-221.49895185 251.58328448 -240.61386497 267.497337 -263 279 C-264.0415625 279.54140625 -265.083125 280.0828125 -266.15625 280.640625 C-302.98586208 298.67574432 -345.73096142 301.12286951 -384.43579102 287.91748047 C-396.51228839 283.54288347 -407.61178069 277.58307095 -417.703125 269.62890625 C-420.05952413 267.95778646 -422.2844746 266.95813751 -425 266 C-425 265.67 -425 265.34 -425 265 C-423.91332031 264.75894531 -422.82664062 264.51789063 -421.70703125 264.26953125 C-416.18387141 262.88600826 -410.97040156 260.78885138 -405.6875 258.6875 C-404.71876953 258.30916016 -403.75003906 257.93082031 -402.75195312 257.54101562 C-397.02567711 255.28335777 -391.40979831 252.8545903 -385.82006836 250.27905273 C-380.73860144 247.97433408 -375.58330551 245.84366905 -370.4375 243.6875 C-362.10942563 240.18211907 -353.81110447 236.62726903 -345.56958008 232.9230957 C-340.70043931 230.73960697 -335.80340643 228.6306652 -330.89038086 226.54785156 C-323.61275259 223.46126851 -316.41419702 220.33996337 -309.38671875 216.7109375 C-305.599628 214.79773595 -301.77186556 212.9837383 -297.93676758 211.16918945 C-288.5383932 206.72207913 -279.24781282 202.14583811 -270.11499023 197.17285156 C-266.14758848 195.03263036 -262.35216715 193.27196038 -258 192 C-259.44231917 198.55599624 -261.81748069 201.99627391 -266.73828125 206.640625 C-269.81261163 208.48840906 -272.24649418 208.40727612 -275.8125 208.5 C-282.68084666 208.87087645 -287.28648505 209.28648505 -292.3125 214.3125 C-295.5746151 219.50772035 -296.47599842 223.73062718 -295.6015625 229.75 C-294.61406673 233.44349066 -292.91406956 236.50123727 -290 239 C-285.67711124 240.84565889 -281.92624037 241.27154949 -277.25 241.25 C-276.12078125 241.25515625 -274.9915625 241.2603125 -273.828125 241.265625 C-270.86542565 241.29068303 -270.86542565 241.29068303 -269 239 C-267.45262449 238.37765519 -265.88711604 237.79978937 -264.3125 237.25 C-257.16395653 234.47115868 -252.74137222 230.69508713 -249 224 C-248.34 224 -247.68 224 -247 224 C-246.85304688 223.46632813 -246.70609375 222.93265625 -246.5546875 222.3828125 C-245.23227214 217.98996147 -243.71641892 214.41862357 -241.125 210.625 C-238.08444898 205.79499751 -236.61438135 200.91091942 -235.1875 195.4375 C-234.8773999 194.25051514 -234.8773999 194.25051514 -234.56103516 193.03955078 C-233.57557602 189.0405261 -232.90901748 185.24027019 -232.62890625 181.12890625 C-232.32591648 178.09337919 -232.23726377 177.27173799 -230.171875 174.90625 C-229.37265625 174.4421875 -228.5734375 173.978125 -227.75 173.5 C-226.84636719 172.94054687 -225.94273437 172.38109375 -225.01171875 171.8046875 C-223.52091797 170.91136719 -223.52091797 170.91136719 -222 170 C-219.84289869 168.55838606 -217.697406 167.09928395 -215.5625 165.625 C-215.01263428 165.24529053 -214.46276855 164.86558105 -213.89624023 164.47436523 C-198.42509416 153.69433794 -181.61672355 139.82876645 -176.125 121 C-175.87252808 114.94067395 -177.60549297 110.47899625 -180.625 105.375 C-182.73420246 101.7556585 -183.8137615 99.27224789 -183 95 C-181.5 93.125 -181.5 93.125 -180 92 C-179.4121875 93.546875 -179.4121875 93.546875 -178.8125 95.125 C-177.43775974 98.37379656 -175.63895189 100.61535502 -173.2734375 103.24609375 C-170.72745666 106.75267473 -169.43552663 110.94203088 -168 115 C-167.01 115 -166.02 115 -165 115 C-164.48902745 109.99246903 -164.29717403 106.33698637 -167.5 102.25 C-167.9640625 101.73953125 -168.428125 101.2290625 -168.90625 100.703125 C-170.47604397 98.25873154 -170.446872 96.86008729 -170 94 C-167.73461914 92.10986328 -167.73461914 92.10986328 -164.53515625 90.3203125 C-163.95982651 89.99106781 -163.38449677 89.66182312 -162.79173279 89.32260132 C-160.89117523 88.23954187 -158.97716208 87.18289103 -157.0625 86.125 C-155.72926564 85.36995902 -154.39724551 84.61277026 -153.06640625 83.85351562 C-150.34873636 82.30389693 -147.62707599 80.76166032 -144.90283203 79.22363281 C-139.37193743 76.08769618 -133.93650163 72.79605933 -128.5 69.5 C-118.92812251 63.72843838 -109.30277292 58.05385872 -99.64950562 52.42001343 C-92.1935744 48.06818318 -84.77342324 43.66707846 -77.39550781 39.18359375 C-12.29925788 -0.32366468 -12.29925788 -0.32366468 0 0 Z " fill="#EF5A25" transform="translate(680,119)"/>
<path d="M0 0 C-2.89852938 2.29860121 -5.83178897 4.01209089 -9.125 5.6875 C-20.87764412 12.05677584 -31.83997474 21.26230431 -36.37109375 34.24609375 C-38.79638167 44.86614333 -37.02505277 54.45120615 -32 64 C-29.97005424 67.06180359 -27.85479422 69.97629491 -25.57421875 72.85546875 C-24 75 -24 75 -24 77 C-23.34 77 -22.68 77 -22 77 C-17 82.47619048 -17 82.47619048 -17 85 C-15.515 85.495 -15.515 85.495 -14 86 C-12.32097734 87.9461399 -10.77590546 89.87728147 -9.25 91.9375 C-8.8068042 92.52869629 -8.3636084 93.11989258 -7.90698242 93.72900391 C-7.01228194 94.92744572 -6.12120681 96.1286031 -5.23388672 97.33251953 C-4.18299473 98.75270004 -3.11120464 100.15737766 -2.03515625 101.55859375 C8.14712696 115.25041675 15.06901314 132.69552647 13 150 C10.82702024 162.00312628 6.54873889 172.95895673 -3 181 C-4.63377642 182.05287814 -6.29181597 183.0727001 -8 184 C-6 178 -6 178 -5.19921875 176.16015625 C-2.15073978 168.63286932 -2.73585535 160.97325511 -3 153 C-3.20753906 153.87140625 -3.41507812 154.7428125 -3.62890625 155.640625 C-6.24315302 165.74758739 -10.15529998 174.92287477 -17 183 C-17.66 183 -18.32 183 -19 183 C-19.33 183.99 -19.66 184.98 -20 186 C-30.89240559 195.33634765 -44.15148031 196.84786855 -58 196 C-61.4616845 195.27389057 -64.71250783 194.29952632 -68 193 C-67.835 192.01 -67.67 191.02 -67.5 190 C-66.44074016 182.14250536 -66.48363429 176.69310591 -71 170 C-73.93461518 166.73931647 -75.37860182 166.08285309 -79.75 165.5 C-83.96448323 165.69193093 -87.29873111 167.22837975 -91.01953125 169.125 C-93 170 -93 170 -96 170 C-101.61369678 154.46208926 -101.13246237 141.62106238 -94.0625 126.5 C-92.11302641 122.92468085 -89.80422964 119.95182067 -87 117 C-86.34 117 -85.68 117 -85 117 C-85 116.34 -85 115.68 -85 115 C-82.98828125 113.5625 -82.98828125 113.5625 -80.3125 112 C-79.44238281 111.484375 -78.57226562 110.96875 -77.67578125 110.4375 C-72.50811294 107.66129279 -68.91792581 106.76792448 -63 107 C-64.35305328 109.33025842 -65.71082078 111.61272163 -67.32421875 113.7734375 C-74.43619313 123.5174024 -80.44112874 137.31323776 -78.62109375 149.546875 C-76.89112607 156.72787293 -73.18838954 162.08029277 -67.1171875 166.3125 C-57.66931307 171.51456851 -47.43406196 171.86867131 -37.140625 169.28125 C-29.05291595 166.68960842 -22.6304852 162.61101194 -18.625 154.9375 C-18.03971706 153.6438606 -17.50154495 152.32834924 -17 151 C-16.64808594 150.08605469 -16.29617188 149.17210937 -15.93359375 148.23046875 C-13.83382302 140.9647349 -13.60527069 132.81644579 -16.21484375 125.67578125 C-20.01454979 118.83631038 -26.79456649 108.60271675 -34 105 C-34 104.34 -34 103.68 -34 103 C-34.598125 102.71125 -35.19625 102.4225 -35.8125 102.125 C-38 101 -38 101 -41 99 C-41 98.34 -41 97.68 -41 97 C-41.66 97 -42.32 97 -43 97 C-53.90428844 86.68589212 -60.31856684 73.55815477 -61.203125 58.5546875 C-61.4271501 40.96871681 -56.17763333 28.52593527 -44.4453125 15.29296875 C-43 14 -43 14 -41 14 C-41 13.34 -41 12.68 -41 12 C-27.18770844 3.72834318 -16.3981045 -0.26687693 0 0 Z " fill="#F0612D" transform="translate(462,22)"/>
<path d="M0 0 C0 0.33 0 0.66 0 1 C-0.64066406 1.15855469 -1.28132813 1.31710938 -1.94140625 1.48046875 C-9.33449389 3.47472935 -15.30742434 5.77836488 -19.375 12.5625 C-22.68835787 19.57152626 -23.66134377 27.61232368 -21.34082031 35.13769531 C-19.95610688 38.81781881 -18.36655199 42.38511028 -16.7265625 45.95703125 C-12.55618871 55.30775609 -11.81601732 63.80234448 -15 73.6875 C-15.33112793 74.72124756 -15.33112793 74.72124756 -15.66894531 75.77587891 C-20.26918391 89.28090955 -29.23056394 99.38103828 -39.29760742 109.20361328 C-44.00435505 113.80988067 -48.00686031 118.11518297 -51 124 C-51.5775 125.0725 -52.155 126.145 -52.75 127.25 C-56.28722518 137.86167553 -55.50302459 148.20561634 -50.625 158.1875 C-49.76629103 159.80044594 -48.89192635 161.40518243 -48 163 C-47.59910156 163.72058594 -47.19820313 164.44117188 -46.78515625 165.18359375 C-45.87238763 166.79799235 -44.93878432 168.40058968 -44 170 C-49.42150637 168.47520133 -52.98887347 164.75234418 -57 161 C-57.804375 160.2575 -57.804375 160.2575 -58.625 159.5 C-59.79735742 158.38093155 -60.90638748 157.19613869 -62 156 C-62 155.34 -62 154.68 -62 154 C-62.66 154 -63.32 154 -64 154 C-65.18359375 152.64453125 -65.18359375 152.64453125 -66.4375 150.8125 C-66.87835938 150.17183594 -67.31921875 149.53117188 -67.7734375 148.87109375 C-68.74032813 147.39612365 -69.66042831 145.89048044 -70.5625 144.375 C-76.9424827 133.83415901 -88.00675019 129.65210149 -99.1237793 125.57275391 C-104.90825209 123.36161976 -108.30940478 120.54327534 -111.7890625 115.30859375 C-113.43204616 110.8195384 -113.43808114 106.8040988 -113.375 102.0625 C-113.38660156 101.19431641 -113.39820313 100.32613281 -113.41015625 99.43164062 C-113.36898779 90.35399497 -110.43832025 84.62703247 -104.25 77.9609375 C-100.83654755 74.98601887 -97.47104354 73.60107952 -93 73 C-89.4375 73.3125 -89.4375 73.3125 -87 74 C-87.63228516 75.03060547 -87.63228516 75.03060547 -88.27734375 76.08203125 C-88.82519531 76.98308594 -89.37304688 77.88414063 -89.9375 78.8125 C-90.48277344 79.70582031 -91.02804687 80.59914063 -91.58984375 81.51953125 C-94.30748722 86.29987363 -94.52138038 90.62504222 -94 96 C-91.91609141 100.93557297 -88.36617317 103.68545935 -83.75 106.25 C-77.52418834 107.94794864 -71.71000135 107.742885 -66.04296875 104.5078125 C-57.08162834 97.89389778 -51.5918155 88.84754902 -49.38671875 77.9765625 C-47.38141382 62.54179124 -52.0113998 51.29878114 -60.86328125 38.8125 C-62 37 -62 37 -62 35 C-62.66 35 -63.32 35 -64 35 C-67.01136859 32.22027515 -69.64197151 29.35088259 -72 26 C-64.76105138 22.95202163 -57.90308114 23.0107608 -50.625 25.8125 C-47.38728905 27.18879081 -44.75132252 28.80773617 -42 31 C-41.86464844 30.44054688 -41.72929687 29.88109375 -41.58984375 29.3046875 C-39.4437477 21.31144351 -35.83211066 14.28625971 -32 7 C-31.34 7 -30.68 7 -30 7 C-30 6.34 -30 5.68 -30 5 C-20.92009911 -2.56658407 -11.16045718 -3.72015239 0 0 Z " fill="#A90A0C" transform="translate(397,25)"/>
<path d="M0 0 C-0.18175781 0.53367187 -0.36351562 1.06734375 -0.55078125 1.6171875 C-1.08702244 3.20666137 -1.61348416 4.79945135 -2.1328125 6.39453125 C-2.67672381 8.02871522 -3.25058497 9.65355269 -3.8671875 11.26171875 C-7.32487027 20.95969565 -7.79636199 34.28061027 -4 44 C-2.50293518 46.9344063 -0.92753961 49.78676362 0.7578125 52.6171875 C2 55 2 55 2 58 C2.66 58 3.32 58 4 58 C5.26171875 59.390625 5.26171875 59.390625 6.6875 61.25 C12.38869212 68.08041375 20.50720411 71.31174606 29.2421875 72.40625 C32.16120742 72.65350816 35.07420039 72.85643285 38 73 C37.67 73.66 37.34 74.32 37 75 C34.32663879 75.81752341 31.72074211 76.50975394 29 77.125 C28.22197021 77.30168213 27.44394043 77.47836426 26.64233398 77.66040039 C9.26450132 81.43992901 -3.37133878 74.26468916 -18.37890625 66.1796875 C-25.72812454 62.29389392 -31.96466924 59.58792859 -40.25 61.9375 C-44.93203599 63.96140799 -46.83175636 67.56734063 -49 72 C-49.680625 73.2684375 -49.680625 73.2684375 -50.375 74.5625 C-51.25724972 78.00327392 -50.8120804 80.56427525 -50 84 C-48.53228729 86.26454073 -48.53228729 86.26454073 -47 88 C-47 88.66 -47 89.32 -47 90 C-54.98312655 89.47936131 -63.4629559 85.85344662 -69 80 C-74.6018667 72.25075107 -75.1899005 64.3193007 -74 55 C-71.0435764 43.86212659 -66.43792846 35.85827021 -56.796875 29.51171875 C-48.18105145 24.85484206 -38.6278817 24.25276142 -29 25 C-28.34 25.33 -27.68 25.66 -27 26 C-26.9175 25.175 -26.835 24.35 -26.75 23.5 C-25.10275221 15.81284363 -20.98464642 9.12322004 -15 4 C-10.05995736 1.25210128 -5.67585939 -0.24238545 0 0 Z " fill="#F05F2C" transform="translate(267,96)"/>
<path d="M0 0 C3.18392915 1.55809299 4.49718678 2.77888217 5.84765625 6.05859375 C6.96157002 10.01398814 7.13781982 12.48547269 6.0625 16.5 C4 19 4 19 0.625 19.9375 C-3 20 -3 20 -5.5625 19.3125 C-8.22700572 18.74610568 -8.22700572 18.74610568 -11.25 20.5625 C-14.51241304 23.45418429 -14.51716681 24.80969767 -15 29 C-14.3922876 28.98952637 -13.7845752 28.97905273 -13.15844727 28.96826172 C25.39289664 28.39454859 25.39289664 28.39454859 36.6875 37.0625 C41.72350126 43.45958269 45.98717118 50.82063995 47 59 C47.10570312 59.84175781 47.21140625 60.68351562 47.3203125 61.55078125 C47.91082009 70.62662612 44.39664138 76.82272701 38.7734375 83.73828125 C36.57320844 86.22181739 34.3111698 88.61996853 32 91 C30.700625 92.4540625 30.700625 92.4540625 29.375 93.9375 C26.47857014 96.45282067 23.55842655 97.61616745 20 99 C19.01 99.66 18.02 100.32 17 101 C8.78741511 103.64473073 0.42629238 103.54096045 -8 102 C-11.0149506 100.43473012 -12.86697647 98.60334859 -15 96 C-15.78375 95.38125 -16.5675 94.7625 -17.375 94.125 C-19.77544878 90.98595159 -20.17932289 87.84468276 -20 84 C-18.85463797 80.11849534 -17.86958826 77.79285989 -14.875 75.0625 C-10.8802497 73.58617924 -7.21124988 73.75227942 -3 74 C-2.16151196 75.45537568 -1.32936066 76.91440373 -0.5 78.375 C-0.0359375 79.18710937 0.428125 79.99921875 0.90625 80.8359375 C2 83 2 83 2 85 C8.44803388 86.21561294 12.70235097 86.35820997 18.40625 82.91015625 C20 82 20 82 22 82 C25.67706949 74.85460296 28.43012306 68.03560693 26 60 C24.16641665 57.66545339 24.16641665 57.66545339 22 56 C21.78472656 55.33097656 21.56945312 54.66195312 21.34765625 53.97265625 C20.05666868 51.61039984 20.05666868 51.61039984 16.5859375 51.171875 C15.18431979 51.01229803 13.78035008 50.87242614 12.375 50.75 C11.68792969 50.67265625 11.00085938 50.5953125 10.29296875 50.515625 C5.51003313 50.01310268 0.80618744 49.97465091 -4 50 C-6.3400417 49.71758117 -8.67504723 49.38749213 -11 49 C-11.94875 48.896875 -12.8975 48.79375 -13.875 48.6875 C-24.25458037 46.40399232 -24.25458037 46.40399232 -27.6875 41.67578125 C-30.86079018 35.35624597 -32.5706184 29.00357513 -31 22 C-29.07762035 17.98924135 -26.68202296 14.53642268 -24 11 C-23.59523437 10.39027344 -23.19046875 9.78054688 -22.7734375 9.15234375 C-17.75072552 2.08802582 -8.47813708 -1.74254201 0 0 Z " fill="#0A0A0A" transform="translate(215,275)"/>
<path d="M0 0 C2.18596362 2.18596362 2.42231831 3.07345514 3.0625 6 C3.55455208 8.21220107 3.98325137 9.96650273 5 12 C5.46264856 17.64431239 5.46264856 17.64431239 5 20 C4.34233643 20.66153076 3.68467285 21.32306152 3.00708008 22.00463867 C0.11849502 26.31555585 0.43365602 30.01318764 0.4609375 35.09375 C0.44914459 36.07686157 0.43735168 37.05997314 0.42520142 38.07287598 C0.38996158 41.21541072 0.38078414 44.35728409 0.375 47.5 C0.23857981 73.30748936 0.23857981 73.30748936 -2 84 C-2.1458252 84.76022461 -2.29165039 85.52044922 -2.44189453 86.30371094 C-4.2616547 95.36632942 -7.06129164 103.14937787 -12 111 C-12.42410156 111.72703125 -12.84820312 112.4540625 -13.28515625 113.203125 C-18.6579934 122.25575094 -23.84764629 127.68944988 -34 131 C-35.485 131.99 -35.485 131.99 -37 133 C-41.7687987 133.38721015 -46.96044957 133.49979062 -50.93359375 130.578125 C-53.22695588 127.64158198 -53.98603613 125.6842298 -54.0625 121.9375 C-52.62459996 117.96212929 -50.91667119 113.9583356 -47 112 C-45.6265365 111.84995027 -44.2471474 111.75161994 -42.8671875 111.68359375 C-42.06152344 111.64169922 -41.25585938 111.59980469 -40.42578125 111.55664062 C-39.58402344 111.51732422 -38.74226563 111.47800781 -37.875 111.4375 C-37.02550781 111.39431641 -36.17601562 111.35113281 -35.30078125 111.30664062 C-33.20071777 111.20045764 -31.10038052 111.09971503 -29 111 C-29 110.34 -29 109.68 -29 109 C-28.113125 108.443125 -27.22625 107.88625 -26.3125 107.3125 C-19.56617402 102.98466824 -17.09056799 96.44387213 -15 89 C-14.66097656 87.90945313 -14.32195312 86.81890625 -13.97265625 85.6953125 C-10.89771749 74.01301504 -11.62206049 64.18241139 -16 53 C-16.33 52.01 -16.66 51.02 -17 50 C-17.66 50 -18.32 50 -19 50 C-20.2890625 48.5390625 -20.2890625 48.5390625 -21.625 46.625 C-22.07101562 45.99851562 -22.51703125 45.37203125 -22.9765625 44.7265625 C-24 43 -24 43 -24 41 C-25.11375 40.566875 -25.11375 40.566875 -26.25 40.125 C-29 39 -29 39 -30.9375 37.8125 C-33.90694832 36.64271733 -35.95397356 37.22229112 -39 38 C-39.99 38.66 -40.98 39.32 -42 40 C-44.6875 39.625 -44.6875 39.625 -47 39 C-46.72966451 31.76852565 -45.96488913 25.22077432 -42 19 C-39 17 -39 17 -35.75 17.0625 C-31.0703489 18.23241277 -28.68564025 19.91609693 -25 23 C-25 23.66 -25 24.32 -25 25 C-24.40445312 25.26296875 -23.80890625 25.5259375 -23.1953125 25.796875 C-18.52482507 28.35650156 -15.57111135 32.57222164 -13.625 37.4375 C-13.41875 38.283125 -13.2125 39.12875 -13 40 C-12.34 40 -11.68 40 -11 40 C-10.93941406 38.73542969 -10.87882812 37.47085938 -10.81640625 36.16796875 C-10.73199096 34.50780129 -10.64734345 32.84764563 -10.5625 31.1875 C-10.52318359 30.35412109 -10.48386719 29.52074219 -10.44335938 28.66210938 C-10.38051758 27.45844727 -10.38051758 27.45844727 -10.31640625 26.23046875 C-10.27974854 25.49207764 -10.24309082 24.75368652 -10.20532227 23.99291992 C-10 22 -10 22 -9 19 C-8.98019657 16.51325521 -8.99818557 14.04694262 -9.0625 11.5625 C-9.26651546 3.21418743 -9.26651546 3.21418743 -7 0 C-4.29393021 -1.35303489 -2.8671629 -0.7884698 0 0 Z " fill="#0F0F0F" transform="translate(443,222)"/>
<path d="M0 0 C4.16952871 1.22633197 6.28748796 2.69224843 9.1875 5.9375 C10.24000198 12.25251188 8.62256568 17.54742909 5.1875 22.9375 C2.5625 24.75 2.5625 24.75 0.1875 25.9375 C-2.56391932 29.47503912 -2.05869208 33.66383539 -1.8125 37.9375 C-1.34615156 41.48748673 -0.6894998 44.98731191 0 48.5 C0.16564453 49.40685547 0.33128906 50.31371094 0.50195312 51.24804688 C1.51362651 56.51256614 2.87158283 61.09995383 5.1875 65.9375 C5.73019531 64.80570312 6.27289063 63.67390625 6.83203125 62.5078125 C7.55426133 61.0258339 8.27694105 59.54407437 9 58.0625 C9.35642578 57.31613281 9.71285156 56.56976563 10.08007812 55.80078125 C10.60698242 54.72763672 10.60698242 54.72763672 11.14453125 53.6328125 C11.46397705 52.97297363 11.78342285 52.31313477 12.11254883 51.63330078 C13.1875 49.9375 13.1875 49.9375 16.1875 47.9375 C19 47.375 19 47.375 22.1875 47.9375 C25.69374853 50.36617806 27.78705341 53.29207524 28.796875 57.44140625 C29.07048347 59.40865115 29.32117841 61.37915595 29.5546875 63.3515625 C30.47461322 68.5644749 32.28607577 73.41251953 34.15625 78.35473633 C36.70026262 85.40980599 36.83872392 91.95817981 35.375 99.3125 C35.22417969 100.12460937 35.07335937 100.93671875 34.91796875 101.7734375 C33.77625987 105.15582638 31.99299319 106.52386836 28.875 108.125 C25.83682739 109.0435173 23.3451706 109.15279572 20.1875 108.9375 C18.66577113 107.41577113 18.94493711 106.05769862 18.875 103.9375 C18.89198122 100.31483952 19.44436736 98.0911534 21.1875 94.9375 C23.43776976 90.39677709 23.6364739 86.22929693 23.6875 81.25 C23.70554687 80.52490234 23.72359375 79.79980469 23.7421875 79.05273438 C23.68604952 73.9582127 22.58040311 70.9389129 19.1875 66.9375 C18.1975 66.6075 17.2075 66.2775 16.1875 65.9375 C15.754375 67.0203125 15.754375 67.0203125 15.3125 68.125 C14.63098252 69.82879371 13.91584572 71.52034034 13.140625 73.18359375 C9.78399029 82.882067 12.39506893 93.22890845 15.5078125 102.59765625 C16.29209712 106.45146862 15.77985781 108.38896752 14.1875 111.9375 C13.1875 112.9375 13.1875 112.9375 10.4375 113.5 C7.1875 112.9375 7.1875 112.9375 5.78515625 111.36328125 C4.46806295 109.26153662 3.30280718 107.15329301 2.1875 104.9375 C1.68734375 104.04933594 1.1871875 103.16117187 0.671875 102.24609375 C-1.1838816 98.10970997 -2.02305049 94.06004581 -2.875 89.625 C-3.19871871 88.00380632 -3.52293594 86.38271211 -3.84765625 84.76171875 C-4.00637207 83.96169434 -4.16508789 83.16166992 -4.32861328 82.33740234 C-5.96868673 74.20323381 -8.03473846 66.30471614 -10.56396484 58.39550781 C-11.44776866 55.62021156 -12.30537701 52.83708925 -13.16015625 50.05273438 C-13.58433584 48.67732571 -14.01374537 47.30351535 -14.44921875 45.93164062 C-17.21948622 37.13560028 -18.27574958 30.04955418 -16.8125 20.9375 C-16.62108381 19.35463534 -16.43307214 17.77135141 -16.25 16.1875 C-16.105625 15.115 -15.96125 14.0425 -15.8125 12.9375 C-14.8225 12.6075 -13.8325 12.2775 -12.8125 11.9375 C-12.52375 11.195 -12.235 10.4525 -11.9375 9.6875 C-9.94764586 4.8234121 -5.50810195 -0.12240227 0 0 Z " fill="#0E0E0E" transform="translate(269.8125,242.0625)"/>
<path d="M0 0 C0.79921875 0.01804687 1.5984375 0.03609375 2.421875 0.0546875 C3.02515625 0.07789062 3.6284375 0.10109375 4.25 0.125 C2.83550246 4.23990195 0.74064734 7.64371592 -1.62890625 11.2578125 C-5.00915534 16.88763502 -4.4688895 23.81624079 -3.75 30.125 C-2.01175751 34.58101577 0.07221059 38.74863709 4.203125 41.359375 C7.58274721 42.6235085 10.72129409 42.99271457 14.25 42.125 C16.81680314 39.27769289 16.81680314 39.27769289 18.25 36.125 C24.31058131 41.17548443 26.77630007 46.99328391 27.671875 54.8046875 C28.88586163 77.78798469 14.77812844 98.46095619 0.75 115.5 C-0.075 116.36625 -0.9 117.2325 -1.75 118.125 C-2.41 118.125 -3.07 118.125 -3.75 118.125 C-3.44255859 117.18140625 -3.44255859 117.18140625 -3.12890625 116.21875 C-0.24608341 107.0599253 0.53839472 98.68322501 0.25 89.125 C0.22486328 87.99578125 0.22486328 87.99578125 0.19921875 86.84375 C-0.63639712 73.66489401 -8.92479942 61.56435697 -16.5625 51.25 C-23.02393481 42.01937884 -23.13087196 32.05131695 -21.75 21.125 C-19.30528577 12.85458378 -14.26771813 5.50319477 -6.8359375 0.953125 C-4.40876866 -0.01047012 -2.60104422 -0.0765013 0 0 Z " fill="#AA0D0E" transform="translate(481.75,66.875)"/>
<path d="M0 0 C-0.12939453 3.25854492 -0.12939453 3.25854492 -1 7 C-3.52294922 9.1105957 -3.52294922 9.1105957 -6.9296875 10.86328125 C-7.55044159 11.19088943 -8.17119568 11.51849762 -8.8107605 11.85603333 C-10.86170258 12.92955481 -12.92946209 13.96484976 -15 15 C-16.42180126 15.73311499 -17.84268886 16.46800442 -19.26269531 17.20458984 C-23.86211261 19.57552409 -28.49074531 21.88557771 -33.125 24.1875 C-33.95625397 24.60174225 -34.78750793 25.0159845 -35.64395142 25.44277954 C-49.4375828 32.31283818 -63.32094936 38.94572196 -77.34716797 45.32958984 C-80.64170187 46.83207736 -83.92578031 48.35644977 -87.20852661 49.88449097 C-107.23935659 59.20633717 -127.42266084 67.95421831 -148 76 C-149.60077393 76.62745117 -149.60077393 76.62745117 -151.23388672 77.26757812 C-158.11933001 79.94973059 -165.04155573 82.51375847 -172 85 C-173.15145508 85.41378906 -174.30291016 85.82757813 -175.48925781 86.25390625 C-242.17861631 110.00191061 -242.17861631 110.00191061 -267 99 C-271.20090429 96.860409 -273.4182358 93.81476685 -275.1875 89.5 C-276.92146016 82.8548232 -274.3286557 76.77722181 -271 71 C-269.515 70.505 -269.515 70.505 -268 70 C-267.29458423 68.68675562 -266.63227082 67.34998364 -266 66 C-260.2151194 58.84459672 -252.43955988 53.60050482 -244.96240234 48.37255859 C-243.67378414 47.4712633 -242.39005554 46.56292834 -241.11181641 45.64697266 C-227.21381755 35.72719769 -227.21381755 35.72719769 -219 37 C-218.34 37.66 -217.68 38.32 -217 39 C-217.62003906 39.38929688 -218.24007812 39.77859375 -218.87890625 40.1796875 C-248.08508281 56.66683111 -248.08508281 56.66683111 -268 82 C-268.14310212 86.36461457 -267.82936726 88.09745327 -264.875 91.3125 C-252.38472217 98.64375003 -236.42003534 94.76975526 -223.01904297 92.42333984 C-217.49424973 91.47741168 -212.35180527 90.78218983 -206.75 91 C-195.63047336 91.38702502 -182.22652073 86.36596696 -173.77954102 79.08642578 C-170.65633918 76.74203554 -167.49848136 75.39038568 -163.87109375 74.0546875 C-163.19957779 73.7987381 -162.52806183 73.5427887 -161.8361969 73.27908325 C-159.70644338 72.46910309 -157.57229117 71.67159627 -155.4375 70.875 C-153.30014116 70.06882226 -151.16378468 69.26007277 -149.02809143 68.44949341 C-147.70369063 67.94775486 -146.37816591 67.44897 -145.05137634 66.95358276 C-141.93861501 65.7831486 -138.96644181 64.49715894 -136 63 C-134.58826701 62.77839075 -133.17043138 62.59394611 -131.75 62.4375 C-125.93559457 61.35792472 -121.49388141 58.64548966 -116.47460938 55.67724609 C-109.20841594 51.42274342 -101.59702292 48.09884113 -93.85253906 44.81860352 C-92.51559205 44.2278308 -91.20017583 43.58748164 -89.90112305 42.91748047 C-87.69929126 41.8548782 -85.99336102 41.70152671 -83.5625 41.5625 C-78.62161161 41.09271061 -75.620589 39.72491877 -72.1796875 36.0625 C-69.85831137 33.86592904 -67.81310352 32.69030715 -64.9375 31.3125 C-63.88691406 30.8071875 -62.83632813 30.301875 -61.75390625 29.78125 C-61.16496582 29.5028125 -60.57602539 29.224375 -59.96923828 28.9375 C-57.75098592 27.88145127 -55.54571224 26.80041801 -53.33984375 25.71875 C-51.6852463 24.91594394 -50.03029815 24.11386029 -48.375 23.3125 C-47.60019287 22.93198486 -46.82538574 22.55146973 -46.02709961 22.15942383 C-41.99043718 20.22725517 -38.11751532 18.69835636 -33.7890625 17.54296875 C-29.96943739 16.46247014 -27.5983579 15.13070561 -24.65820312 12.37353516 C-20.97417125 9.32195045 -16.48805094 7.35870393 -12.25 5.1875 C-10.81333984 4.43436523 -10.81333984 4.43436523 -9.34765625 3.66601562 C-2.27498937 0 -2.27498937 0 0 0 Z " fill="#AF1C1D" transform="translate(425,295)"/>
<path d="M0 0 C5.76463136 4.02456671 9.99038644 9.21665084 14.23828125 14.765625 C15.90724579 16.98541075 15.90724579 16.98541075 17.73046875 18.671875 C19 20 19 20 19 22 C19.66 22 20.32 22 21 22 C21 22.66 21 23.32 21 24 C21.58652344 24.28101563 22.17304688 24.56203125 22.77734375 24.8515625 C24.82667644 25.91044442 26.6560974 27.08210493 28.5625 28.375 C38.7518898 34.70137938 49.30673816 35.9581619 61 37 C54.95617448 44.3679145 40.48680867 45.67065003 31.625 47.3125 C30.71065186 47.48386475 29.79630371 47.65522949 28.85424805 47.83178711 C16.08252624 50.05834829 3.03102442 49.67929008 -8 42 C-8.68820835 40.67765682 -9.35780377 39.34529039 -10 38 C-11.485 37.505 -11.485 37.505 -13 37 C-13.6875 34.9375 -13.6875 34.9375 -14 33 C-12.865625 32.525625 -11.73125 32.05125 -10.5625 31.5625 C-7.24259834 30.36377917 -7.24259834 30.36377917 -6 29 C-5.93740661 23.05362825 -6.98573386 18.54245906 -11 14 C-16.84937114 9.75633859 -22.45959469 8.32561627 -29.65625 9.39453125 C-31.35667341 9.7421178 -33.05183557 10.11727403 -34.73828125 10.52734375 C-37 11 -37 11 -41 11 C-40.03509772 6.07899838 -39.0609763 3.15626695 -34.80859375 0.06640625 C-24.31449947 -6.12125625 -10.49445464 -6.1829217 0 0 Z " fill="#AA0C0E" transform="translate(118,301)"/>
<path d="M0 0 C2.81021229 2.27855051 3.86568106 4.00603985 4.3515625 7.6015625 C4.47231042 11.67406043 4.29232744 15.12301767 3 19 C0.51068503 21.48931497 -1.81296215 22.26665954 -5.16015625 23.2265625 C-7.3694546 23.9561096 -7.3694546 23.9561096 -9 27 C-9.06136632 28.95810676 -9.06136632 28.95810676 -8.6875 31.0625 C-8.0084504 35.78566725 -8.0084504 35.78566725 -7.9140625 38.1796875 C-7.61979991 44.72137124 -5.65325756 50.40857752 -3.51611328 56.53173828 C-1.31323207 62.89401568 0.55624451 69.31343855 2.3125 75.8125 C2.56668701 76.74932617 2.82087402 77.68615234 3.08276367 78.65136719 C4.18139672 82.75303017 5.19709799 86.82869119 6 91 C6.99 91 7.98 91 9 91 C9.18175781 90.43152344 9.36351562 89.86304688 9.55078125 89.27734375 C10.34328061 86.84294827 11.1696908 84.42173517 12 82 C12.2165625 81.31164062 12.433125 80.62328125 12.65625 79.9140625 C13.3125 78.0625 13.3125 78.0625 15 75 C18.1875 73.5625 18.1875 73.5625 21 73 C23.34936549 77.69873098 21.4629793 84.34505205 20.109375 89.18359375 C19.11960967 92.14181029 18.0734616 95.07127268 17 98 C16.69449219 99.01835937 16.38898438 100.03671875 16.07421875 101.0859375 C14.406476 105.61006874 11.62349031 108.85664092 8 112 C4.5625 113 4.5625 113 2 113 C-1.62763807 105.44668941 -4.52597206 97.85565904 -7.0625 89.875 C-9.12480962 83.41445779 -11.28605925 77.17448683 -14.12695312 71.01416016 C-15.39547561 68.08761919 -16.17924238 65.07869248 -17 62 C-17.48271419 60.46615448 -17.97422631 58.93506086 -18.47265625 57.40625 C-18.73240234 56.60316406 -18.99214844 55.80007812 -19.25976562 54.97265625 C-19.79529555 53.32306773 -20.33436546 51.67462429 -20.87695312 50.02734375 C-24.63086466 38.36307002 -26.11813549 23.19025849 -21.1875 11.5625 C-17.18750776 4.39643616 -8.57898678 -2.77809471 0 0 Z " fill="#0E0E0E" transform="translate(385,194)"/>
<path d="M0 0 C2.1875 0.8125 2.1875 0.8125 3.1875 1.8125 C3.34708101 3.16302814 3.46478276 4.51859162 3.5625 5.875 C3.95979875 9.8669065 4.91777768 13.0954458 6.4375 16.78515625 C7.23148491 18.93139671 7.68924392 21.00507807 8.125 23.25 C8.9811496 27.46489035 10.51600589 31.10178044 12.3828125 34.96484375 C13.1875 36.8125 13.1875 36.8125 13.1875 38.8125 C13.8475 38.8125 14.5075 38.8125 15.1875 38.8125 C15.373125 37.3584375 15.373125 37.3584375 15.5625 35.875 C15.76875 34.864375 15.975 33.85375 16.1875 32.8125 C16.8475 32.4825 17.5075 32.1525 18.1875 31.8125 C20.40684455 35.14151683 20.45879898 36.30043637 20.4375 40.1875 C20.44523437 41.59128906 20.44523437 41.59128906 20.453125 43.0234375 C20.17162051 45.9792346 19.31161781 48.08188432 18.1875 50.8125 C17.77787546 53.4411604 17.77787546 53.4411604 17.625 56.0625 C17.28797847 60.71202153 17.28797847 60.71202153 16.1875 61.8125 C13.8125 62.1875 13.8125 62.1875 11.1875 61.8125 C8.44464162 58.02406114 7.01973757 53.89491674 5.5 49.5 C5.27505859 48.85482422 5.05011719 48.20964844 4.81835938 47.54492188 C4.26976467 45.96917113 3.72793041 44.39106946 3.1875 42.8125 C3.05698242 43.45799805 2.92646484 44.10349609 2.79199219 44.76855469 C2.18942034 47.70332232 1.56374542 50.63269687 0.9375 53.5625 C0.73253906 54.57828125 0.52757812 55.5940625 0.31640625 56.640625 C-0.00263672 58.11015625 -0.00263672 58.11015625 -0.328125 59.609375 C-0.51665039 60.51010742 -0.70517578 61.41083984 -0.89941406 62.33886719 C-2.00051678 65.32185454 -3.3681913 66.80712179 -5.8125 68.8125 C-8.1875 69 -8.1875 69 -10.8125 67.8125 C-18.1144619 61.44270345 -23.3579435 48.45601806 -24.015625 38.84375 C-24.16306362 27.7367075 -23.58521908 18.75276698 -15.57421875 10.5234375 C-14.99285156 9.95882813 -14.41148437 9.39421875 -13.8125 8.8125 C-12.966875 7.905 -12.12125 6.9975 -11.25 6.0625 C-4.36690415 -0.29112694 -4.36690415 -0.29112694 0 0 Z M-9.8125 18.8125 C-13.73103617 22.73103617 -13.98285919 27.99914742 -14.1875 33.3125 C-14.11467279 38.59247299 -12.84723405 41.54490524 -9.8125 45.8125 C-8.8225 45.4825 -7.8325 45.1525 -6.8125 44.8125 C-4.8772689 40.46308428 -4.51554289 36.53753776 -4.5 31.8125 C-4.48324219 30.636875 -4.46648437 29.46125 -4.44921875 28.25 C-4.84589808 24.49647515 -5.93673825 22.05920108 -7.8125 18.8125 C-8.4725 18.8125 -9.1325 18.8125 -9.8125 18.8125 Z " fill="#0F0F0F" transform="translate(329.8125,268.1875)"/>
<path d="M0 0 C2.85195645 1.81305811 5.62843274 3.71060805 8.40234375 5.640625 C26.90973942 17.63727561 47.06618139 25.06579032 69.27734375 24.953125 C70.32438477 24.95256104 71.37142578 24.95199707 72.45019531 24.95141602 C79.32513362 24.86982545 85.41879392 24.22573253 92.01171875 22.19921875 C94.57044196 21.60134715 95.95196576 21.77612248 98.40234375 22.640625 C75.00814763 29.98107935 51.49136914 32.67588838 27.40234375 26.640625 C26.16742188 26.3621875 24.9325 26.08375 23.66015625 25.796875 C8.53015479 22.14805968 -7.60768397 15.30060652 -20.59765625 6.640625 C-20.09765625 4.328125 -20.09765625 4.328125 -18.59765625 1.640625 C-12.90556945 -1.84543773 -6.00771529 -3.1438871 0 0 Z " fill="#A90605" transform="translate(291.59765625,376.359375)"/>
<path d="M0 0 C4.88996714 1.83373768 6.37981525 6.4347844 8.5 10.9375 C10.92525361 18.14635729 12.89263426 25.34542819 13.5 32.9375 C14.82 33.2675 16.14 33.5975 17.5 33.9375 C17.83 32.9475 18.16 31.9575 18.5 30.9375 C20.5625 30.25 20.5625 30.25 22.5 29.9375 C23.7015378 36.05441972 23.35396994 41.24032311 22.25 47.3125 C22.12842529 48.01439453 22.00685059 48.71628906 21.8815918 49.43945312 C21.32764045 52.25857859 20.76871552 54.55221492 19.11328125 56.92578125 C17.5 57.9375 17.5 57.9375 13.9375 57.75 C10.5 56.9375 10.5 56.9375 8.5 54.9375 C8.5 53.9475 8.5 52.9575 8.5 51.9375 C7.015 51.4425 7.015 51.4425 5.5 50.9375 C1.83881618 42.18249522 -1.5 30.45326868 -1.5 20.9375 C-2.221875 21.288125 -2.94375 21.63875 -3.6875 22 C-6.8122705 23.04159017 -8.38161996 22.82846572 -11.5 21.9375 C-12.36576216 14.28993429 -9.69748397 9.2592581 -5.5 2.9375 C-2.95827884 -0.07395697 -2.95827884 -0.07395697 0 0 Z " fill="#111111" transform="translate(351.5,258.0625)"/>
<path d="M0 0 C0.93328125 -0.01611328 1.8665625 -0.03222656 2.828125 -0.04882812 C10.27642632 -0.05402945 16.89465378 0.88222905 22.875 5.5625 C26.35156141 10.06157947 28.0287747 13.49969386 27.9375 19.25 C25.07404324 34.63001004 10.0994012 46.18070565 -2.06420898 54.61352539 C-4.72903821 56.43205609 -7.40730587 58.22945057 -10.09521484 60.01367188 C-12.03848193 61.33873992 -13.91596673 62.73406176 -15.80078125 64.140625 C-19 66.3125 -19 66.3125 -22 66.3125 C-22.328125 63.0546875 -22.328125 63.0546875 -22 59.3125 C-19.796875 57.1953125 -19.796875 57.1953125 -16.75 55.4375 C-15.66460937 54.78007812 -14.57921875 54.12265625 -13.4609375 53.4453125 C-12.60773926 52.93339355 -12.60773926 52.93339355 -11.73730469 52.41113281 C-8.81247214 50.56153381 -6.10489069 48.43509501 -3.375 46.3125 C1.77364865 42.3125 1.77364865 42.3125 4 42.3125 C4 41.6525 4 40.9925 4 40.3125 C5.5390625 38.8671875 5.5390625 38.8671875 7.625 37.1875 C13.57321206 32.13573834 19.42102915 25.8615567 20.4375 17.875 C20.28900954 14.20666973 20.28900954 14.20666973 17.875 11.5 C12.30447976 7.26156069 6.97695876 7.01210789 0.25 7.125 C-0.5426123 7.13144531 -1.33522461 7.13789063 -2.15185547 7.14453125 C-7.81683515 7.2186893 -13.37778438 7.58705282 -19 8.3125 C-19.33 6.3325 -19.66 4.3525 -20 2.3125 C-13.21817468 0.56840353 -6.99042892 -0.02413822 0 0 Z " fill="#AF1D1D" transform="translate(471,220.6875)"/>
<path d="M0 0 C-0.09539062 0.95261719 -0.19078125 1.90523437 -0.2890625 2.88671875 C-0.39992188 4.14097656 -0.51078125 5.39523438 -0.625 6.6875 C-0.74101562 7.92886719 -0.85703125 9.17023438 -0.9765625 10.44921875 C-0.99986567 13.97964932 -0.66175152 15.92410893 1 19 C7.42124539 24.77912085 12.59280448 24.42934609 21 24 C23.50268852 23.53428935 25.60793249 22.89007163 28 22 C26.79786566 28.27625951 22.41269048 33.2026605 17.375 36.9375 C12.43188184 39.95829443 7.7893889 40.75650817 2 40 C-4.64766523 37.74738416 -9.32593799 33.94404009 -12.8125 27.8125 C-14.7676554 21.53542215 -15.12813708 15.75370996 -12.3125 9.6875 C-9.52525804 4.80488466 -6.09458915 0 0 0 Z " fill="#AC1415" transform="translate(407,145)"/>
<path d="M0 0 C2.92721681 1.46360841 3.11071034 3.7410143 4.13671875 6.6875 C5.01693417 9.04536213 6.0782077 11.2422178 7.1875 13.5 C9.52313002 18.79590529 9.94733392 22.98186078 8.22265625 28.4765625 C5.22156381 35.5467518 0.84691769 39.6173506 -6 43 C-9.54335516 44.19702571 -13.08448039 45.17730389 -16.7109375 46.08984375 C-20.84334999 47.23337357 -24.23776227 48.97417968 -28 51 C-28.66 51 -29.32 51 -30 51 C-29.39096941 47.90694578 -28.40131197 45.80360238 -26.5625 43.25 C-26.13066406 42.63640625 -25.69882812 42.0228125 -25.25390625 41.390625 C-24.63322266 40.70226562 -24.63322266 40.70226562 -24 40 C-23.34 40 -22.68 40 -22 40 C-21.67 39.01 -21.34 38.02 -21 37 C-19.07298635 35.59234349 -17.08358907 34.26888826 -15.0625 33 C-10.42900229 30.13143354 -10.42900229 30.13143354 -7 26 C-6.34 26 -5.68 26 -5 26 C-3.91994249 22.42341611 -3.79558865 18.97045727 -3.625 15.25 C-3.26188688 9.54733822 -2.37950228 5.17283104 0 0 Z " fill="#AD1617" transform="translate(507,155)"/>
<path d="M0 0 C-1.299375 1.423125 -1.299375 1.423125 -2.625 2.875 C-6.37081636 7.23039497 -9.12229165 12.04936615 -12 17 C-13.26489402 19.0874885 -14.54958436 21.03157878 -16 23 C-16.66 23 -17.32 23 -18 23 C-18 23.66 -18 24.32 -18 25 C-24.98246009 29.24097359 -30.8004761 31.29661146 -39 30 C-46.72390382 27.74719472 -52.4537488 21.5462512 -58 16 C-57.67 15.67 -57.34 15.34 -57 15 C-54.83072086 15.06555514 -52.66351848 15.2039526 -50.5 15.375 C-49.22898437 15.46910156 -47.95796875 15.56320312 -46.6484375 15.66015625 C-43.76135427 15.92908156 -40.97836979 16.32692654 -38.125 16.8125 C-32.11039764 17.47709695 -28.16147546 14.6911384 -23.55859375 11.08984375 C-21.85626632 9.6993931 -20.15831491 8.30356719 -18.46484375 6.90234375 C-12.9361175 2.63532365 -7.05452881 -0.19066294 0 0 Z " fill="#AD1617" transform="translate(160,353)"/>
<path d="M0 0 C2.389162 0.23120923 3.72243929 0.78649176 5.625 2.25 C7.30023222 4.38211373 8.02191197 6.46847803 9 9 C9.70125 10.03125 10.4025 11.0625 11.125 12.125 C13.87577629 16.75734818 13.52867071 21.77396004 13 27 C12.67 27.66 12.34 28.32 12 29 C7.42409231 29.31199371 5.49497103 28.91247585 2 26 C0.68 25.67 -0.64 25.34 -2 25 C-1.67 28.96 -1.34 32.92 -1 37 C-6.26086957 38.19565217 -6.26086957 38.19565217 -9.125 37.4375 C-14.14098148 33.5919142 -16.18623537 27.49905861 -18.25 21.75 C-18.518125 21.03070313 -18.78625 20.31140625 -19.0625 19.5703125 C-21 14.29161352 -21 14.29161352 -21 12 C-13.92857143 14.79135338 -13.92857143 14.79135338 -11.375 19.5625 C-10.92898438 20.38878906 -10.48296875 21.21507812 -10.0234375 22.06640625 C-9.68570312 22.70449219 -9.34796875 23.34257812 -9 24 C-9 20.7 -9 17.4 -9 14 C-4.67580959 14.25436414 -2.54538344 14.51659195 0.75 17.4375 C1.4925 18.283125 2.235 19.12875 3 20 C3.99 20.66 4.98 21.32 6 22 C5.855625 21.39671875 5.71125 20.7934375 5.5625 20.171875 C5.376875 19.37265625 5.19125 18.5734375 5 17.75 C4.814375 16.96109375 4.62875 16.1721875 4.4375 15.359375 C4 13 4 13 4 9 C3.195625 8.773125 2.39125 8.54625 1.5625 8.3125 C-1 7 -1 7 -1.9375 4.5 C-1.958125 3.675 -1.97875 2.85 -2 2 C-1.34 1.34 -0.68 0.68 0 0 Z M6 22 C7 24 7 24 7 24 Z " fill="#2C2C2C" transform="translate(459,440)"/>
<path d="M0 0 C5.75 -0.125 5.75 -0.125 8 1 C8 1.66 8 2.32 8 3 C9.32 3.33 10.64 3.66 12 4 C12 4.66 12 5.32 12 6 C12.598125 6.12375 13.19625 6.2475 13.8125 6.375 C18.04810999 7.58517428 19.69652717 9.75936779 21.75 13.4375 C22.19859375 14.21996094 22.6471875 15.00242187 23.109375 15.80859375 C24 18 24 18 23 21 C21.96875 21.144375 20.9375 21.28875 19.875 21.4375 C16.57450187 21.91660457 13.28731659 22.43875083 10 23 C10.495 23.94875 10.99 24.8975 11.5 25.875 C13 29 13 29 13 31 C13.99 31.33 14.98 31.66 16 32 C16 32.99 16 33.98 16 35 C12.66886795 37.2207547 11.12661034 37.27589467 7.2421875 36.6640625 C0.04690293 34.53305488 -6.91322859 28.37784007 -12 23 C-12 22.34 -12 21.68 -12 21 C-7.10160332 20.65115276 -4.34104063 21.53207378 -0.125 24 C0.84179688 24.556875 1.80859375 25.11375 2.8046875 25.6875 C3.89136719 26.3371875 3.89136719 26.3371875 5 27 C3.00144083 23.50108982 1.39665758 21.22539635 -2 19 C-1.67 18.01 -1.34 17.02 -1 16 C1.44192869 14.77903565 2.56741508 15.03739578 5.25 15.375 C6.04792969 15.47425781 6.84585938 15.57351563 7.66796875 15.67578125 C10.45555047 16.06333449 13.22987135 16.50279742 16 17 C11.04800316 10.56375342 7.09836273 6.63092027 -1 5 C-0.67 3.35 -0.34 1.7 0 0 Z " fill="#262626" transform="translate(516,374)"/>
<path d="M0 0 C1.32 0 2.64 0 4 0 C8.40774487 9.41002278 8.40774487 9.41002278 9 14 C9.5775 13.195625 10.155 12.39125 10.75 11.5625 C12.97328219 9.03042862 13.7203912 8.21864059 17 8 C19.77949235 9.38974617 20.47776967 11.57799864 21.91015625 14.2265625 C23.0257443 16.21359856 23.0257443 16.21359856 25.3125 18.1875 C25.869375 18.785625 26.42625 19.38375 27 20 C26.75 22.25 26.75 22.25 26 24 C23.8125 24.375 23.8125 24.375 21 24 C19.00977164 22.16038352 17.61010101 20.20813852 16 18 C13.81024227 21.28463659 13.00193437 24.20696275 12 28 C10.35 28.33 8.7 28.66 7 29 C4 20 1 11 -2 2 C-1.34 1.34 -0.68 0.68 0 0 Z " fill="#272727" transform="translate(382,471)"/>
<path d="M0 0 C2.10546875 -0.359375 2.10546875 -0.359375 5 0 C7.33043149 1.85966679 9.27106562 3.61678789 11.3125 5.75 C12.13717773 6.55824219 12.13717773 6.55824219 12.97851562 7.3828125 C17 11.47923137 17 11.47923137 17 16 C17.66 16 18.32 16 19 16 C19.55941359 17.74440798 20.09691897 19.49585257 20.625 21.25 C20.92664063 22.22453125 21.22828125 23.1990625 21.5390625 24.203125 C22 27 22 27 21.2734375 29.234375 C20 31 20 31 17 33 C14.3125 33.125 14.3125 33.125 12 33 C11.67 31.68 11.34 30.36 11 29 C11.66 29 12.32 29 13 29 C14.29776931 25.10669207 14.81484362 21.02936431 14 17 C12.34407133 14.29446731 10.44457979 12.02659465 8 10 C7.34 10 6.68 10 6 10 C6 10.99 6 11.98 6 13 C2.5848235 16.4151765 -0.16532382 17.7942691 -5 18 C-7.375 17.0625 -7.375 17.0625 -9 16 C-9 15.34 -9 14.68 -9 14 C-9.99 13.67 -10.98 13.34 -12 13 C-11.67 11.68 -11.34 10.36 -11 9 C-7.28111761 9.50712033 -4.26545761 10.11608215 -1 12 C0.47075246 7.58774263 1.36884358 4.51718381 0 0 Z " fill="#2C2C2C" transform="translate(499,421)"/>
<path d="M0 0 C2.0625 0.4375 2.0625 0.4375 4 1 C4.57354657 15.31742174 4.57354657 15.31742174 1 20 C-2.66062697 22.96807592 -5.35312297 23.32420072 -10 23 C-10.33 22.01 -10.66 21.02 -11 20 C-11.66 19.835 -12.32 19.67 -13 19.5 C-13.66 19.335 -14.32 19.17 -15 19 C-15.9738963 16.07831111 -16.19605823 13.98970526 -16.25 10.9375 C-16.27578125 10.05964844 -16.3015625 9.18179687 -16.328125 8.27734375 C-16.21984375 7.52582031 -16.1115625 6.77429688 -16 6 C-12.5647952 3.70986347 -11.014669 3.82157027 -7 4 C-5.68 6.31 -4.36 8.62 -3 11 C-1.42734206 9.42734206 -1.69242023 7.67159971 -1.5 5.5 C-1.11111111 1.11111111 -1.11111111 1.11111111 0 0 Z M-12 8 C-12.33 8.66 -12.66 9.32 -13 10 C-11.60907108 12.62387135 -11.60907108 12.62387135 -10 15 C-9.67 14.01 -9.34 13.02 -9 12 C-10.37168238 9.80961577 -10.37168238 9.80961577 -12 8 Z M-9 15 C-8 17 -8 17 -8 17 Z " fill="#232323" transform="translate(557,297)"/>
<path d="M0 0 C1.875 2 1.875 2 3 4 C0.03 4.99 -2.94 5.98 -6 7 C-5.855625 7.89460938 -5.71125 8.78921875 -5.5625 9.7109375 C-4.46302225 16.87281338 -3.69946929 23.75387073 -4 31 C-5.32 31 -6.64 31 -8 31 C-9.81226917 25.3352341 -11.27469144 19.92335327 -12 14 C-12.33 13.01 -12.66 12.02 -13 11 C-15.97 11.66 -18.94 12.32 -22 13 C-22.66 11.02 -23.32 9.04 -24 7 C-21.03821227 5.32889958 -18.62928808 4.67317248 -15.25 4.375 C-14.45078125 4.30023438 -13.6515625 4.22546875 -12.828125 4.1484375 C-12.22484375 4.09945313 -11.6215625 4.05046875 -11 4 C-11 3.01 -11 2.02 -11 1 C-7.26185284 0.12043596 -3.83486229 -0.41683286 0 0 Z " fill="#262626" transform="translate(378,474)"/>
<path d="M0 0 C1.9375 1.75 1.9375 1.75 2.8125 4.75 C2.9375 7.75 2.9375 7.75 1.9375 10.75 C1.2775 10.75 0.6175 10.75 -0.0625 10.75 C-0.1553125 11.678125 -0.1553125 11.678125 -0.25 12.625 C-1.0625 14.75 -1.0625 14.75 -3.125 16 C-10.04468161 17.76672722 -14.4757888 17.01340928 -20.59375 13.625 C-21.0784375 13.33625 -21.563125 13.0475 -22.0625 12.75 C-22.73214286 4.98214286 -22.73214286 4.98214286 -19.8125 1.375 C-13.36506578 -4.77936902 -7.82484211 -3.19381311 0 0 Z M-12.0625 1.75 C-14.24962805 3.35204619 -14.24962805 3.35204619 -16.0625 5.75 C-15.91900653 8.94954954 -15.91900653 8.94954954 -15.0625 11.75 C-9.34912627 12.34236584 -9.34912627 12.34236584 -4.5625 9.75 C-4.0675 9.09 -3.5725 8.43 -3.0625 7.75 C-3.56506112 5.73567734 -3.56506112 5.73567734 -5.0625 3.75 C-8.60838501 2.45079254 -8.60838501 2.45079254 -12.0625 1.75 Z " fill="#323232" transform="translate(318.0625,496.25)"/>
<path d="M0 0 C0.1953125 2.05078125 0.390625 4.1015625 0.5859375 6.15234375 C0.72257813 6.76207031 0.85921875 7.37179687 1 8 C1.66 8.33 2.32 8.66 3 9 C3.433125 7.88625 3.433125 7.88625 3.875 6.75 C4.82302644 4.43260203 5.84845911 2.22082885 7 0 C8.32 0.33 9.64 0.66 11 1 C10.51288744 7.49483407 7.47730953 12.26641707 3.1875 17 C-0.88450609 18.8614885 -5.113629 18.49641342 -9.375 17.375 C-11.98872109 15.16338984 -12.38990272 13.35553503 -13 10 C-12.52837562 5.74823474 -12.08141745 2.08141745 -9 -1 C-5.44231117 -2.4721471 -3.39194088 -1.60174986 0 0 Z M-7 2 C-7 4.97 -7 7.94 -7 11 C-6.34 10.67 -5.68 10.34 -5 10 C-5 7.69 -5 5.38 -5 3 C-5.66 2.67 -6.32 2.34 -7 2 Z " fill="#272727" transform="translate(543,361)"/>
<path d="M0 0 C0.53625 0.309375 1.0725 0.61875 1.625 0.9375 C1.295 2.5875 0.965 4.2375 0.625 5.9375 C-2.64775026 5.9375 -5.221632 5.63824844 -8.375 4.9375 C-8.375 6.2575 -8.375 7.5775 -8.375 8.9375 C-7.776875 9.123125 -7.17875 9.30875 -6.5625 9.5 C-3.24672118 11.67894037 -2.56791897 14.23317267 -1.375 17.9375 C-1.375 21.52646921 -2.02910103 22.57125403 -4.5 25.1875 C-7.92934499 27.27492738 -10.36915807 27.86331774 -14.375 27.9375 C-16.3125 26.5 -16.3125 26.5 -17.375 24.9375 C-16.3125 22.4375 -16.3125 22.4375 -14.375 19.9375 C-10.6875 19.625 -10.6875 19.625 -7.375 19.9375 C-9.31746078 16.245867 -9.31746078 16.245867 -12.5 13.6875 C-15.21563454 11.15290776 -15.2881498 8.71392887 -15.546875 5.09765625 C-15.375 2.9375 -15.375 2.9375 -13.625 0.4375 C-8.91615457 -2.70173029 -5.05559955 -2.26171559 0 0 Z " fill="#252525" transform="translate(249.375,480.0625)"/>
<path d="M0 0 C3 2 3 2 3.5 4.25 C2.77352784 8.24559686 0.74744499 10.04649663 -2 13 C3.94 12.505 3.94 12.505 10 12 C9.67 13.65 9.34 15.3 9 17 C-3.41125336 20.97249881 -3.41125336 20.97249881 -9 19 C-11.4279779 16.93352103 -13.42795867 14.78130388 -15 12 C-15 10.68 -15 9.36 -15 8 C-14.34 8 -13.68 8 -13 8 C-13 6.68 -13 5.36 -13 4 C-12.01 4 -11.02 4 -10 4 C-9.67 3.01 -9.34 2.02 -9 1 C-5.79205436 -1.29138974 -3.69519355 -1.13698263 0 0 Z M-6.125 4.875 C-8.22054055 6.77762162 -8.22054055 6.77762162 -8 9 C-5.37812506 7.95125002 -4.20628639 7.35068687 -2.75 4.875 C-2.5025 4.25625 -2.255 3.6375 -2 3 C-4.22237838 2.77945945 -4.22237838 2.77945945 -6.125 4.875 Z " fill="#212121" transform="translate(421,471)"/>
<path d="M0 0 C1.2065625 0.0309375 1.2065625 0.0309375 2.4375 0.0625 C3.54594919 3.38784757 3.28204356 5.68432575 2.4375 9.0625 C3.4275 9.3925 4.4175 9.7225 5.4375 10.0625 C5.705625 9.299375 5.97375 8.53625 6.25 7.75 C7.73619796 4.38649936 9.26673746 2.86992244 12.25 0.8125 C15.25708667 -0.21850114 17.38482851 0.33251334 20.4375 1.0625 C21.0975 1.3925 21.7575 1.7225 22.4375 2.0625 C22.4375 2.7225 22.4375 3.3825 22.4375 4.0625 C23.0975 4.0625 23.7575 4.0625 24.4375 4.0625 C26.27441257 7.84437881 26.59587626 10.00818308 25.4375 14.0625 C20.6875 13.1875 20.6875 13.1875 18.4375 12.0625 C17.8125 9 17.8125 9 17.4375 6.0625 C14.10048871 7.1748371 13.76238536 7.68663508 11.9375 10.5 C10.17772333 13.20170842 9.2384287 14.1952142 6.4375 16.0625 C2.81715105 15.9084426 0.95851103 15.48494138 -1.875 13.1875 C-4.36980188 10.04589763 -4.60224844 8.44673492 -4.1875 4.4375 C-3.3810118 0.0824637 -3.3810118 0.0824637 0 0 Z " fill="#1D1D1D" transform="translate(537.5625,321.9375)"/>
<path d="M0 0 C-2.79466652 24.33098491 -2.79466652 24.33098491 -7 33 C-7.40863281 33.88171875 -7.81726563 34.7634375 -8.23828125 35.671875 C-12.09256062 43.3587195 -17.34689609 49.59836257 -23 56 C-23 51.96752029 -21.15946974 49.22227022 -19.3125 45.75 C-13.26745568 33.9414175 -9.66097283 22.43644468 -8.07495117 9.2565918 C-7.32302431 3.4341816 -7.32302431 3.4341816 -5.70166016 1.25488281 C-4 0 -4 0 0 0 Z " fill="#AA0705" transform="translate(497,285)"/>
<path d="M0 0 C2.0078125 0.5234375 2.0078125 0.5234375 3.66796875 2.6640625 C5.07129683 5.6589201 5.86262064 8.42136261 6.5703125 11.6484375 C7.37102849 15.27654046 7.92497451 17.39918052 10.0078125 20.5234375 C7.6953125 21.1484375 7.6953125 21.1484375 5.0078125 21.5234375 C4.0178125 20.8634375 3.0278125 20.2034375 2.0078125 19.5234375 C2.0078125 18.5334375 2.0078125 17.5434375 2.0078125 16.5234375 C1.3478125 16.5234375 0.6878125 16.5234375 0.0078125 16.5234375 C0.0078125 17.1834375 0.0078125 17.8434375 0.0078125 18.5234375 C-7.1921875 19.9634375 -7.1921875 19.9634375 -10.4921875 18.1484375 C-12.69337612 14.29635741 -12.91804504 10.85182152 -11.9921875 6.5234375 C-9.5546875 3.5234375 -9.5546875 3.5234375 -6.9921875 1.5234375 C-5.12600198 -0.34274802 -2.49441096 0.1748849 0 0 Z M-2.9921875 4.5234375 C-6.95211743 8.38284197 -6.95211743 8.38284197 -7.9921875 13.5234375 C-5.61843889 13.85769485 -5.61843889 13.85769485 -2.9921875 13.5234375 C-0.58907299 11.28605502 -0.02877325 10.06002846 0.1953125 6.7734375 C0.1334375 6.0309375 0.0715625 5.2884375 0.0078125 4.5234375 C-0.9821875 4.5234375 -1.9721875 4.5234375 -2.9921875 4.5234375 Z " fill="#232323" transform="translate(261.9921875,490.4765625)"/>
<path d="M0 0 C3.375 0.875 3.375 0.875 5.375 2.875 C5.1328125 5.0390625 5.1328125 5.0390625 4.5 7.5 C4.29632812 8.31726563 4.09265625 9.13453125 3.8828125 9.9765625 C3.63144531 10.91628906 3.63144531 10.91628906 3.375 11.875 C6.72858125 10.75713958 8.68658141 9.12745881 11.375 6.875 C12.695 7.535 14.015 8.195 15.375 8.875 C13.56496584 13.76209222 9.56745989 16.26719608 5.5 19.25 C0.72793 20.65355 -3.41544981 19.53017302 -7.625 17.25 C-9.625 14.875 -9.625 14.875 -10.0625 11.375 C-9.51639676 7.00617409 -8.48529383 5.05392117 -5.9375 1.5625 C-3.625 -0.125 -3.625 -0.125 0 0 Z M-1.625 2.875 C-4.1643228 6.29331915 -4.9886198 8.63276898 -4.625 12.875 C-1.18283328 10.2151439 -0.62995326 6.97211714 0.375 2.875 C-0.285 2.875 -0.945 2.875 -1.625 2.875 Z " fill="#1A1A1A" transform="translate(576.625,238.125)"/>
<path d="M0 0 C1.8203125 1.2109375 1.8203125 1.2109375 3 3 C3.14453125 5.62890625 3.14453125 5.62890625 2.8125 8.5625 C2.71582031 9.53316406 2.61914062 10.50382813 2.51953125 11.50390625 C2 14 2 14 0 16 C-2.2421875 16.265625 -2.2421875 16.265625 -4.875 16.25 C-5.73867188 16.25515625 -6.60234375 16.2603125 -7.4921875 16.265625 C-10.10473577 15.98890649 -11.7500088 15.3185995 -14 14 C-14.60736196 4.21472393 -14.60736196 4.21472393 -12.625 0.25 C-8.49285176 -1.71768964 -4.3569786 -1.2147169 0 0 Z " fill="#AC1314" transform="translate(269,201)"/>
<path d="M0 0 C5.81130065 -0.61822347 8.82851215 0.75744389 13.77734375 3.75390625 C16.78507527 5.44013886 19.65455927 6.21702451 23 7 C22.01 8.485 22.01 8.485 21 10 C19.0546875 10.29296875 19.0546875 10.29296875 16.875 10.1875 C15.59625 10.125625 14.3175 10.06375 13 10 C13.33 10.99 13.66 11.98 14 13 C12.5 16.1875 12.5 16.1875 10 19 C6.5625 19.6875 6.5625 19.6875 3 19 C0.11082937 16.99014217 -1.56049522 15.45065302 -2.59765625 12.02734375 C-3.23340696 8.11784228 -3.27635592 5.28806966 -1 2 C-0.67 1.34 -0.34 0.68 0 0 Z M3 4 C1.84162374 8.05431692 2.16308743 10.21812119 4 14 C5.32 13.67 6.64 13.34 8 13 C8.23428313 8.2102679 8.23428313 8.2102679 6 4 C5.01 4 4.02 4 3 4 Z " fill="#2C2C2C" transform="translate(474,440)"/>
<path d="M0 0 C3.76286737 0.70553763 4.80712342 1.42981918 7 4.5625 C8.85004653 9.26261822 9.63098025 13.66955924 8 18.5625 C5.46538766 20.80465707 3.83941767 20.55968277 0.4375 20.5 C-3 19.5625 -3 19.5625 -4.875 17.5625 C-6.37727139 13.55644295 -7.24864771 9.85944329 -7 5.5625 C-5.0957455 1.83016119 -4.13210673 0.77477001 0 0 Z " fill="#171717" transform="translate(343,230.4375)"/>
<path d="M0 0 C1.05960938 0.00676758 1.05960938 0.00676758 2.140625 0.01367188 C3.88545275 0.02546125 5.630237 0.04339676 7.375 0.0625 C7.57073608 1.49890171 7.75627816 2.93669504 7.9375 4.375 C8.04191406 5.17550781 8.14632812 5.97601563 8.25390625 6.80078125 C8.375 9.0625 8.375 9.0625 7.375 12.0625 C6.35792969 12.02769531 6.35792969 12.02769531 5.3203125 11.9921875 C-1.26667236 11.86446203 -7.22610441 12.50788762 -13.625 14.0625 C-13.53766424 12.45732903 -13.42947776 10.85328338 -13.3125 9.25 C-13.25449219 8.35667969 -13.19648438 7.46335938 -13.13671875 6.54296875 C-12.5540429 3.71854766 -11.86414391 2.81511387 -9.625 1.0625 C-6.55966836 -0.47016582 -3.35745728 -0.04026471 0 0 Z " fill="#AF1C1D" transform="translate(182.625,236.9375)"/>
<path d="M0 0 C1.3303125 0.13535156 1.3303125 0.13535156 2.6875 0.2734375 C5 0.625 5 0.625 7 1.625 C7.60882353 10.48676471 7.60882353 10.48676471 5.5625 14.3125 C2.19350274 16.03808396 -0.18018579 15.77418737 -3.87890625 15.375 C-6.72680192 14.36800927 -7.60987116 13.29018079 -9 10.625 C-8.92578125 8.08203125 -8.92578125 8.08203125 -8.3125 5.4375 C-8.12300781 4.55707031 -7.93351562 3.67664063 -7.73828125 2.76953125 C-6.35366782 -1.25244108 -3.68235342 -0.39606708 0 0 Z " fill="#F16634" transform="translate(100,266.375)"/>
<path d="M0 0 C2.4375 1 2.4375 1 4 2 C4.17523261 7.08174565 4.28258584 11.32069904 2 16 C-2.31168444 17.7098059 -5.70398688 16.21720372 -10 15 C-10.08107583 13.06318839 -10.13922475 11.1254066 -10.1875 9.1875 C-10.22230469 8.10855469 -10.25710937 7.02960938 -10.29296875 5.91796875 C-10 3 -10 3 -8.703125 1.1328125 C-5.86793792 -0.75297707 -3.29809492 -0.28930657 0 0 Z " fill="#F16735" transform="translate(203,199)"/>
<path d="M0 0 C0.495 0.99 0.495 0.99 1 2 C-1.40018301 7.68464398 -4.64924937 12.76042989 -10 16 C-13.20703125 16.44140625 -13.20703125 16.44140625 -16.8125 16.5625 C-21.89615185 16.81694764 -26.21683271 17.29172597 -31 19 C-31.33 18.01 -31.66 17.02 -32 16 C-21.33333333 10.66666667 -10.66666667 5.33333333 0 0 Z " fill="#F26938" transform="translate(421,311)"/>
<path d="M0 0 C2.4375 0.75 2.4375 0.75 4.4375 2.75 C4.0625 5.375 4.0625 5.375 3.4375 7.75 C2.674375 7.564375 1.91125 7.37875 1.125 7.1875 C-1.65217375 6.52180827 -1.65217375 6.52180827 -4.5625 7.75 C-4.2325 8.41 -3.9025 9.07 -3.5625 9.75 C-3.49184383 11.79055005 -3.47828024 13.83334257 -3.5 15.875 C-3.50902344 16.97070312 -3.51804687 18.06640625 -3.52734375 19.1953125 C-3.53894531 20.03835938 -3.55054688 20.88140625 -3.5625 21.75 C-5.5 22.3125 -5.5 22.3125 -7.5625 22.75 C-9.81162141 20.50087859 -9.46725651 15.58553901 -9.8671875 12.53515625 C-10.30996768 9.4323593 -10.30996768 9.4323593 -13.5625 7.75 C-13.75 4.625 -13.75 4.625 -13.5625 1.75 C-11.57682292 1.81510417 -9.59114583 1.88020833 -7.60546875 1.9453125 C-4.40892183 1.63971528 -3.35296189 -0.32711823 0 0 Z " fill="#232323" transform="translate(336.5625,490.25)"/>
<path d="M0 0 C0.66 0.33 1.32 0.66 2 1 C0.24251274 7.67845161 -3.16435634 15.10957089 -9 19 C-11.6875 19.125 -11.6875 19.125 -14 19 C-15.19963643 16.56781941 -16.38484438 14.13029422 -17.5625 11.6875 C-17.90474609 10.99720703 -18.24699219 10.30691406 -18.59960938 9.59570312 C-21.11328125 4.33984375 -21.11328125 4.33984375 -20 1 C-18.140625 1.25390625 -18.140625 1.25390625 -16 2 C-14.734375 3.77734375 -14.734375 3.77734375 -13.75 5.9375 C-13.41484375 6.64777344 -13.0796875 7.35804688 -12.734375 8.08984375 C-12 10 -12 10 -12 12 C-10.88625 10.824375 -10.88625 10.824375 -9.75 9.625 C-7 7 -7 7 -4.75 5.9375 C-2.77934302 5.14704759 -2.77934302 5.14704759 -2.375 2.9375 C-2.25125 2.298125 -2.1275 1.65875 -2 1 C-1.34 0.67 -0.68 0.34 0 0 Z " fill="#292929" transform="translate(294,493)"/>
<path d="M0 0 C0.625 1.8125 0.625 1.8125 1 4 C0.01 5.485 0.01 5.485 -1 7 C-1 7.99 -1 8.98 -1 10 C-0.22914063 10.12117188 0.54171875 10.24234375 1.3359375 10.3671875 C2.33882812 10.53476562 3.34171875 10.70234375 4.375 10.875 C5.37273438 11.03742188 6.37046875 11.19984375 7.3984375 11.3671875 C10 12 10 12 12 14 C12 15.32 12 16.64 12 18 C10.06201479 17.69052329 8.12462574 17.37731166 6.1875 17.0625 C4.56908203 16.80146484 4.56908203 16.80146484 2.91796875 16.53515625 C0 16 0 16 -3 15 C-3 15.66 -3 16.32 -3 17 C-6.13349732 18.04449911 -6.98968256 17.93423645 -10 17 C-9 14 -8 11 -7 8 C-7.309375 7.01 -7.309375 7.01 -7.625 6 C-7.74875 5.34 -7.8725 4.68 -8 4 C-5.65201422 0.98116115 -3.84717769 0 0 0 Z " fill="#1E1E1E" transform="translate(551,277)"/>
<path d="M0 0 C0.99 0 1.98 0 3 0 C3 0.66 3 1.32 3 2 C3.66 2 4.32 2 5 2 C6.04328606 3.8416267 7.05874324 5.69903358 8.0625 7.5625 C8.63097656 8.59503906 9.19945312 9.62757813 9.78515625 10.69140625 C11 14 11 14 10 21 C4.06 20.67 -1.88 20.34 -8 20 C-8.33 18.68 -8.66 17.36 -9 16 C-4.65921255 13.82960627 0.4267574 15.00821245 5 16 C4.6390625 15.18015625 4.278125 14.3603125 3.90625 13.515625 C3.4421875 12.43796875 2.978125 11.3603125 2.5 10.25 C2.0359375 9.18265625 1.571875 8.1153125 1.09375 7.015625 C0 4 0 4 0 0 Z " fill="#252525" transform="translate(560,252)"/>
<path d="M0 0 C1.22589844 0.15275391 1.22589844 0.15275391 2.4765625 0.30859375 C3.41628906 0.43427734 3.41628906 0.43427734 4.375 0.5625 C5.4007259 4.97312136 5.41184712 7.48880576 3.375 11.5625 C-3.88825581 11.9197093 -3.88825581 11.9197093 -6.6875 10.5625 C-8.30416986 7.11360431 -7.39522378 4.23587497 -6.625 0.5625 C-4.10446405 -0.69776798 -2.7707902 -0.35624445 0 0 Z " fill="#F26D3E" transform="translate(146.625,253.4375)"/>
<path d="M0 0 C2.389162 0.23120923 3.72243929 0.78649176 5.625 2.25 C7.30023222 4.38211373 8.02191197 6.46847803 9 9 C9.74222139 10.19237732 10.49267656 11.37965704 11.25 12.5625 C13 16 13 16 12.25 18.4375 C11.8375 18.953125 11.425 19.46875 11 20 C10.34 19.01 9.68 18.02 9 17 C8.34 17.33 7.68 17.66 7 18 C6.34 17.67 5.68 17.34 5 17 C4.40644386 14.35139573 4.25790731 11.70802678 4 9 C3.195625 8.773125 2.39125 8.54625 1.5625 8.3125 C-1 7 -1 7 -1.9375 4.5 C-1.958125 3.675 -1.97875 2.85 -2 2 C-1.34 1.34 -0.68 0.68 0 0 Z " fill="#343434" transform="translate(459,440)"/>
<path d="M0 0 C2.03529587 2.03529587 2.6384272 3.23417382 3.625 5.875 C3.88539063 6.55304688 4.14578125 7.23109375 4.4140625 7.9296875 C5 10 5 10 5 14 C-1.435 14.495 -1.435 14.495 -8 15 C-8 11.37810777 -7.00684882 9.99437883 -5.125 6.9375 C-4.59132813 6.05964844 -4.05765625 5.18179688 -3.5078125 4.27734375 C-2 2 -2 2 0 0 Z " fill="#F26E3F" transform="translate(291,244)"/>
<path d="M0 0 C5.75 -0.125 5.75 -0.125 8 1 C8 1.66 8 2.32 8 3 C9.32 3.33 10.64 3.66 12 4 C12 4.66 12 5.32 12 6 C12.598125 6.12375 13.19625 6.2475 13.8125 6.375 C16 7 16 7 19 9 C18.67 9.99 18.34 10.98 18 12 C17.01 11.67 16.02 11.34 15 11 C14.34 11.66 13.68 12.32 13 13 C12.360625 12.236875 11.72125 11.47375 11.0625 10.6875 C7.68297217 7.24936764 3.55590437 6.22086326 -1 5 C-0.67 3.35 -0.34 1.7 0 0 Z " fill="#303030" transform="translate(516,374)"/>
<path d="M0 0 C-0.28284018 1.77226453 -0.57660498 3.542788 -0.875 5.3125 C-1.03742188 6.29863281 -1.19984375 7.28476562 -1.3671875 8.30078125 C-2 11 -2 11 -4 14 C-5.17219543 13.21654285 -6.33763668 12.42297164 -7.5 11.625 C-8.1496875 11.18414062 -8.799375 10.74328125 -9.46875 10.2890625 C-10.22671875 9.65097656 -10.22671875 9.65097656 -11 9 C-11 8.34 -11 7.68 -11 7 C-11.66 7 -12.32 7 -13 7 C-13 6.01 -13 5.02 -13 4 C-11.2097939 3.32942113 -9.41778511 2.6636531 -7.625 2 C-6.62726563 1.62875 -5.62953125 1.2575 -4.6015625 0.875 C-2 0 -2 0 0 0 Z " fill="#B52B2B" transform="translate(160,285)"/>
<path d="M0 0 C1.32 0 2.64 0 4 0 C4.39222105 1.41199578 4.76311059 2.82992764 5.125 4.25 C5.33382812 5.03890625 5.54265625 5.8278125 5.7578125 6.640625 C6.05021974 9.48923747 5.59665787 10.65020162 4 13 C0.77208445 15.1519437 -0.28400809 15.20086443 -4 15 C-4.33 13.68 -4.66 12.36 -5 11 C-4.34 11 -3.68 11 -3 11 C-2.86722656 10.37351562 -2.73445312 9.74703125 -2.59765625 9.1015625 C-2.33275391 7.87566406 -2.33275391 7.87566406 -2.0625 6.625 C-1.88847656 5.81289063 -1.71445312 5.00078125 -1.53515625 4.1640625 C-1 2 -1 2 0 0 Z " fill="#252525" transform="translate(515,439)"/>
<path d="M0 0 C1.93166016 0.01740234 1.93166016 0.01740234 3.90234375 0.03515625 C5.19269531 0.04417969 6.48304688 0.05320312 7.8125 0.0625 C8.81152344 0.07410156 9.81054688 0.08570313 10.83984375 0.09765625 C8.96484375 7.72265625 8.96484375 7.72265625 7.83984375 11.09765625 C7.17984375 11.09765625 6.51984375 11.09765625 5.83984375 11.09765625 C4.61706264 9.64353817 3.39826793 8.18554316 2.21484375 6.69921875 C0.33157843 4.50564267 -1.84626321 2.81654822 -4.16015625 1.09765625 C-3.16015625 0.09765625 -3.16015625 0.09765625 0 0 Z " fill="#F27142" transform="translate(217.16015625,270.90234375)"/>
<path d="M0 0 C0 1.98 0 3.96 0 6 C-3.83269257 7.80362003 -6.76849335 8.44078194 -11 8 C-13.875 6.5 -13.875 6.5 -16 5 C-13.70311431 2.70311431 -12.21071829 2.28148697 -9.125 1.375 C-7.82949219 0.98441406 -7.82949219 0.98441406 -6.5078125 0.5859375 C-4 0 -4 0 0 0 Z " fill="#B12626" transform="translate(428,229)"/>
<path d="M0 0 C3.375 0.875 3.375 0.875 5.375 2.875 C5.203125 5.00390625 5.203125 5.00390625 4.625 7.4375 C4.44453125 8.24316406 4.2640625 9.04882812 4.078125 9.87890625 C3.375 11.875 3.375 11.875 1.375 12.875 C1.375 11.555 1.375 10.235 1.375 8.875 C0.715 8.545 0.055 8.215 -0.625 7.875 C-0.955 8.535 -1.285 9.195 -1.625 9.875 C-0.75 5.125 -0.75 5.125 0.375 2.875 C-2.79166667 4.70833333 -2.79166667 4.70833333 -4.625 7.875 C-4.625 6.885 -4.625 5.895 -4.625 4.875 C-5.285 4.875 -5.945 4.875 -6.625 4.875 C-6.955 7.185 -7.285 9.495 -7.625 11.875 C-8.75 10.125 -8.75 10.125 -9.625 7.875 C-8.06091256 2.86992018 -5.31827868 -0.18338892 0 0 Z " fill="#3B3B3B" transform="translate(576.625,238.125)"/>
<path d="M0 0 C0.66 0.33 1.32 0.66 2 1 C1.67 3.31 1.34 5.62 1 8 C0.34 8 -0.32 8 -1 8 C-1.33 9.32 -1.66 10.64 -2 12 C-3.98 12.33 -5.96 12.66 -8 13 C-8.66 12.01 -9.32 11.02 -10 10 C-9.34 10 -8.68 10 -8 10 C-7.71125 9.4225 -7.4225 8.845 -7.125 8.25 C-6.75375 7.5075 -6.3825 6.765 -6 6 C-5.71125 5.29875 -5.4225 4.5975 -5.125 3.875 C-3.72822474 1.54704124 -2.54497983 0.87483682 0 0 Z " fill="#1D1D1D" transform="translate(319,499)"/>
<path d="M0 0 C0 2.64 0 5.28 0 8 C-1.65 8.33 -3.3 8.66 -5 9 C-5.12375 8.030625 -5.2475 7.06125 -5.375 6.0625 C-5.684375 4.5465625 -5.684375 4.5465625 -6 3 C-6.66 2.67 -7.32 2.34 -8 2 C-8.1546875 2.86625 -8.1546875 2.86625 -8.3125 3.75 C-9.09792798 6.32049158 -10.30504197 7.93657284 -12 10 C-11.88590407 8.54077307 -11.75834456 7.08259402 -11.625 5.625 C-11.55539062 4.81289063 -11.48578125 4.00078125 -11.4140625 3.1640625 C-11 1 -11 1 -9 -1 C-5.44231117 -2.4721471 -3.39194088 -1.60174986 0 0 Z " fill="#303030" transform="translate(543,361)"/>
<path d="M0 0 C1.88599343 2.38892501 3 3.91851558 3 7 C2.01 7 1.02 7 0 7 C0 9.31 0 11.62 0 14 C-1.94268841 11.08596738 -3.46395304 8.14191424 -5 5 C-5.33 5.99 -5.66 6.98 -6 8 C-6.33 7.67 -6.66 7.34 -7 7 C-7.66 7.99 -8.32 8.98 -9 10 C-9.29296875 3.9453125 -9.29296875 3.9453125 -9 2 C-5.52648925 -0.31567384 -4.08600528 -0.59587577 0 0 Z " fill="#464646" transform="translate(550,301)"/>
<path d="M0 0 C1 3 1 3 -0.0625 6.125 C-2 9 -2 9 -5 10 C-8 10 -8 10 -11 8 C-11 7.01 -11 6.02 -11 5 C-7.37 3.35 -3.74 1.7 0 0 Z " fill="#B93939" transform="translate(305,277)"/>
<path d="M0 0 C3 1 3 1 4 3 C0.56744035 4.20213133 -2.87171198 5.38414794 -6.3125 6.5625 C-7.28896484 6.90474609 -8.26542969 7.24699219 -9.27148438 7.59960938 C-10.20927734 7.91865234 -11.14707031 8.23769531 -12.11328125 8.56640625 C-12.97735596 8.86490479 -13.84143066 9.16340332 -14.73168945 9.47094727 C-17 10 -17 10 -20 9 C-20.33 8.34 -20.66 7.68 -21 7 C-19.90300781 6.74605469 -18.80601562 6.49210937 -17.67578125 6.23046875 C-16.22124786 5.88325755 -14.76682658 5.53557642 -13.3125 5.1875 C-12.59126953 5.02185547 -11.87003906 4.85621094 -11.12695312 4.68554688 C-7.75159005 3.86867819 -5.17577817 3.1054669 -2.16796875 1.30078125 C-1.45253906 0.87152344 -0.73710937 0.44226563 0 0 Z " fill="#C15050" transform="translate(240,380)"/>
<path d="M0 0 C3.09592835 3.5087188 4.74194623 6.49197399 6 11 C5.34 11.66 4.68 12.32 4 13 C3.34 12.01 2.68 11.02 2 10 C1.01 10.495 1.01 10.495 0 11 C-0.66 10.67 -1.32 10.34 -2 10 C-2.40729228 7.67843403 -2.74438677 5.3431213 -3 3 C-2.01 2.67 -1.02 2.34 0 2 C0 1.34 0 0.68 0 0 Z " fill="#474747" transform="translate(466,447)"/>
<path d="M0 0 C-0.75 5.75 -0.75 5.75 -3 8 C-5.625 7.625 -5.625 7.625 -8 7 C-8 5.35 -8 3.7 -8 2 C-5.09399739 0.74335022 -3.20395416 0 0 0 Z " fill="#B63030" transform="translate(394,240)"/>
<path d="M0 0 C5.75 -0.125 5.75 -0.125 8 1 C7.1875 3.4375 7.1875 3.4375 6 6 C3 7 3 7 0.8125 6.0625 C0.214375 5.711875 -0.38375 5.36125 -1 5 C-0.67 3.35 -0.34 1.7 0 0 Z " fill="#3B3B3B" transform="translate(516,374)"/>
<path d="M0 0 C1.32 0.66 2.64 1.32 4 2 C2.54744301 5.82946843 0.57104439 7.12050295 -3 9 C-3 8.34 -3 7.68 -3 7 C-3.99 6.67 -4.98 6.34 -6 6 C-4 4 -2 2 0 0 Z " fill="#262626" transform="translate(588,245)"/>
<path d="M0 0 C0 0.99 0 1.98 0 3 C-0.99 3.66 -1.98 4.32 -3 5 C-3.99 6.485 -3.99 6.485 -5 8 C-5 7.01 -5 6.02 -5 5 C-5.66 5 -6.32 5 -7 5 C-7.33 7.31 -7.66 9.62 -8 12 C-9.125 10.25 -9.125 10.25 -10 8 C-8.38259239 2.82429564 -5.36039142 0 0 0 Z " fill="#696969" transform="translate(577,238)"/>
<path d="M0 0 C0.78375 0.04125 1.5675 0.0825 2.375 0.125 C1.694375 0.74375 1.694375 0.74375 1 1.375 C-0.70553436 3.21172931 -1.53713507 4.88127858 -2.625 7.125 C-3.60081759 8.47613205 -4.59529741 9.81446944 -5.625 11.125 C-5.51090407 9.66577307 -5.38334456 8.20759402 -5.25 6.75 C-5.18039062 5.93789063 -5.11078125 5.12578125 -5.0390625 4.2890625 C-4.39806644 0.93895099 -3.37594706 0.16075938 0 0 Z " fill="#3E3E3E" transform="translate(536.625,359.875)"/>
<path d="M0 0 C0.33 0.66 0.66 1.32 1 2 C-4.445 3.485 -4.445 3.485 -10 5 C-10.33 4.34 -10.66 3.68 -11 3 C-9.73581754 2.30034557 -8.46334598 1.61565237 -7.1875 0.9375 C-6.47980469 0.55464844 -5.77210938 0.17179687 -5.04296875 -0.22265625 C-3 -1 -3 -1 0 0 Z " fill="#C96A69" transform="translate(243,381)"/>
<path d="M0 0 C0.66 0.33 1.32 0.66 2 1 C-1.63 4.63 -5.26 8.26 -9 12 C-9 9 -9 9 -7 6 C-6.34 6 -5.68 6 -5 6 C-4.67 5.01 -4.34 4.02 -4 3 C-1.9375 1.3125 -1.9375 1.3125 0 0 Z " fill="#BB3C3C" transform="translate(490,189)"/>
<path d="M0 0 C-0.99 0.495 -0.99 0.495 -2 1 C-1.67 1.66 -1.34 2.32 -1 3 C-4 4 -4 4 -8 4 C-8 3.01 -8 2.02 -8 1 C-4.93251126 -0.86240388 -3.40254489 -1.2151946 0 0 Z " fill="#6F6F6F" transform="translate(420,471)"/>
<path d="M0 0 C0.99 0 1.98 0 3 0 C3 0.66 3 1.32 3 2 C3.66 2 4.32 2 5 2 C5 2.99 5 3.98 5 5 C3.35 4.67 1.7 4.34 0 4 C0 2.68 0 1.36 0 0 Z " fill="#3B3B3B" transform="translate(560,252)"/>
<path d="M0 0 C0.33 0.66 0.66 1.32 1 2 C-1.31 2.66 -3.62 3.32 -6 4 C-6.33 3.01 -6.66 2.02 -7 1 C-3.375 -1.125 -3.375 -1.125 0 0 Z " fill="#F47950" transform="translate(396,326)"/>
<path d="M0 0 C1.32 0.66 2.64 1.32 4 2 C3.34 3.32 2.68 4.64 2 6 C1.67 5.01 1.34 4.02 1 3 C0.01 2.67 -0.98 2.34 -2 2 C-1.34 1.34 -0.68 0.68 0 0 Z " fill="#515151" transform="translate(588,245)"/>
<path d="M0 0 C0.33 0.66 0.66 1.32 1 2 C1.99 2.33 2.98 2.66 4 3 C2.71034824 4.37562854 1.37310707 5.70766393 0 7 C-0.66 7 -1.32 7 -2 7 C-1.34 4.69 -0.68 2.38 0 0 Z " fill="#CA6968" transform="translate(480,178)"/>
<path d="M0 0 C0.33 1.32 0.66 2.64 1 4 C1.66 4 2.32 4 3 4 C3 4.66 3 5.32 3 6 C2.01 6 1.02 6 0 6 C-0.33 6.66 -0.66 7.32 -1 8 C-1.66 6.35 -2.32 4.7 -3 3 C-2.34 3 -1.68 3 -1 3 C-0.67 2.01 -0.34 1.02 0 0 Z " fill="#5C5C5C" transform="translate(515,433)"/>
<path d="M0 0 C3.63 0 7.26 0 11 0 C7 3 7 3 5 3 C5 2.34 5 1.68 5 1 C3.35 1 1.7 1 0 1 C0 0.67 0 0.34 0 0 Z " fill="#F6875D" transform="translate(451,22)"/>
<path d="M0 0 C3.96 0 7.92 0 12 0 C12 0.33 12 0.66 12 1 C8.04 1 4.08 1 0 1 C0 0.67 0 0.34 0 0 Z " fill="#1F1F1F" transform="translate(682,535)"/>
<path d="M0 0 C0.66 0 1.32 0 2 0 C2.33 1.65 2.66 3.3 3 5 C1.5 3.625 1.5 3.625 0 2 C0 1.34 0 0.68 0 0 Z " fill="#CC5450" transform="translate(359,253)"/>
</svg>
