<?xml version="1.0" encoding="UTF-8"?>
<svg version="1.1" xmlns="http://www.w3.org/2000/svg" width="744" height="536">
<path d="M0 0 C245.52 0 491.04 0 744 0 C744 176.88 744 353.76 744 536 C498.48 536 252.96 536 0 536 C0 359.12 0 182.24 0 0 Z " fill="#DADADA" transform="translate(0,0)"/>
<path d="M0 0 C0.92296875 -0.01675781 1.8459375 -0.03351563 2.796875 -0.05078125 C5.25 0.3125 5.25 0.3125 7.05078125 1.5078125 C9.55929931 5.2828462 8.7839268 9.98769296 8.25 14.3125 C7.29659504 17.27010571 5.94519265 19.71792862 4.25 22.3125 C3.81816406 22.98796875 3.38632812 23.6634375 2.94140625 24.359375 C1.79055553 26.06686865 0.52810437 27.69805237 -0.75 29.3125 C-1.41 29.3125 -2.07 29.3125 -2.75 29.3125 C-2.75 29.9725 -2.75 30.6325 -2.75 31.3125 C-3.41 31.3125 -4.07 31.3125 -4.75 31.3125 C-4.75 31.9725 -4.75 32.6325 -4.75 33.3125 C-25.28249988 53.0911068 -52.21665685 65.99017356 -77.83612061 77.61395264 C-85.32345784 81.01619289 -92.76730186 84.5106378 -100.20669556 88.01623535 C-102.48729117 89.0896028 -104.77027017 90.15776519 -107.0534668 91.22558594 C-114.15329746 94.55953656 -121.19490318 97.98358573 -128.13671875 101.63671875 C-128.76085159 101.96154739 -129.38498444 102.28637604 -130.0280304 102.62104797 C-133.0446663 104.23323611 -135.39664602 105.84534289 -137.75 108.3125 C-138.41 108.3125 -139.07 108.3125 -139.75 108.3125 C-140.14058594 109.15941406 -140.14058594 109.15941406 -140.5390625 110.0234375 C-141.8643512 112.52866066 -143.43089861 114.66636845 -145.125 116.9375 C-148.59120609 121.84196588 -150.84621756 126.6367374 -152.75 132.3125 C-153.02585937 133.11429688 -153.30171875 133.91609375 -153.5859375 134.7421875 C-157.07702074 145.56108903 -158.05643513 156.73079772 -158.95355225 168.00732422 C-163.08098179 218.98820548 -179.50201705 258.64670735 -217.75 293.3125 C-223.19822944 297.94256104 -228.92951922 302.16626919 -234.75 306.3125 C-235.65903076 306.97258057 -235.65903076 306.97258057 -236.58642578 307.64599609 C-263.15576883 326.83455685 -295.0737583 339.33234617 -327 346.125 C-327.9084668 346.31989014 -328.81693359 346.51478027 -329.75292969 346.71557617 C-345.41653974 349.85632654 -361.06103772 350.69259369 -377 350.625 C-377.89764069 350.62317719 -378.79528137 350.62135437 -379.72012329 350.61947632 C-393.27421145 350.57323103 -406.43324687 350.02551808 -419.75 347.3125 C-420.61931152 347.14621094 -421.48862305 346.97992188 -422.38427734 346.80859375 C-454.26735614 340.62992425 -487.92242295 328.93201934 -512.75 307.3125 C-513.78253906 306.45978516 -513.78253906 306.45978516 -514.8359375 305.58984375 C-517.66476697 303.24018335 -519.68545638 301.40931543 -521.75 298.3125 C-521.75 296.9925 -521.75 295.6725 -521.75 294.3125 C-521.14865234 294.27809814 -520.54730469 294.24369629 -519.92773438 294.20825195 C-490.89601285 292.43902856 -462.76434505 285.63552721 -435.30053711 276.13452148 C-433.05396528 275.41046603 -430.87965784 274.86932988 -428.5625 274.4375 C-424.06151245 273.50456803 -419.7748522 272.06302564 -415.4375 270.5625 C-414.76243408 270.33449707 -414.08736816 270.10649414 -413.3918457 269.87158203 C-409.1183791 268.36080638 -405.12042427 266.5362836 -401.08203125 264.4765625 C-395.05866071 261.40870587 -388.9081338 258.78127635 -382.65536499 256.2194519 C-356.31151522 245.40807267 -330.34318701 233.67236395 -304.546875 221.61914062 C-301.87704469 220.37185258 -299.20425931 219.13108116 -296.53125 217.890625 C-286.09086348 213.02064854 -275.87959061 207.79882116 -265.75 202.3125 C-265.42 202.9725 -265.09 203.6325 -264.75 204.3125 C-271.13271605 214.90509259 -271.13271605 214.90509259 -276.75 217.3125 C-280.29786074 217.65405097 -283.83899433 217.82015445 -287.3984375 218 C-292.14378682 218.44245681 -294.10862848 219.21346041 -297.75 222.3125 C-300.70643356 226.23166961 -302.47424185 229.93370924 -303.4375 234.75 C-302.43682207 239.9353311 -300.03575914 244.19022879 -296.75 248.3125 C-291.18840635 251.79935852 -284.12095361 251.72352927 -277.75 251.3125 C-275.19496043 250.02961243 -275.19496043 250.02961243 -272.75 248.3125 C-271.48569096 247.87643679 -270.21397374 247.46155296 -268.9375 247.0625 C-255.44823924 242.09277235 -249.53449995 227.36503395 -243.75 215.3125 C-243.22019531 214.37277344 -243.22019531 214.37277344 -242.6796875 213.4140625 C-241.34581942 210.3988481 -240.81682464 207.35729043 -240.1875 204.125 C-240.05456543 203.45879639 -239.92163086 202.79259277 -239.78466797 202.10620117 C-239.07359063 198.43823467 -238.59240019 194.85186034 -238.375 191.125 C-237.75 187.3125 -237.75 187.3125 -235.66015625 185.37109375 C-232.34112434 183.0232685 -228.97068638 180.77792934 -225.5625 178.5625 C-207.51248175 166.65847461 -186.82559233 151.11315485 -180.75 129.3125 C-181.13924596 123.12863025 -183.44166753 118.57474401 -186.3984375 113.29882812 C-188.76036055 108.88958244 -188.76036055 108.88958244 -188.7109375 106.13671875 C-186.57135571 102.07499235 -183.06477858 99.71043415 -179.13671875 97.53515625 C-178.23074951 97.02871582 -177.32478027 96.52227539 -176.39135742 96.00048828 C-175.41658447 95.46407715 -174.44181152 94.92766602 -173.4375 94.375 C-171.34367754 93.20716115 -169.24992955 92.03918879 -167.15625 90.87109375 C-166.08761719 90.27796387 -165.01898437 89.68483398 -163.91796875 89.07373047 C-159.07883144 86.38341477 -154.25730879 83.66225149 -149.4375 80.9375 C-148.02283447 80.13868408 -148.02283447 80.13868408 -146.57958984 79.32373047 C-138.29347078 74.63723881 -130.04676951 69.88366249 -121.80688477 65.11645508 C-116.07528213 61.80200308 -110.33683606 58.50051831 -104.58203125 55.2265625 C-87.86760637 45.71700592 -71.16617699 36.2112076 -55.0625 25.6875 C-43.91979829 18.41503782 -32.65906425 11.52235235 -20.625 5.8125 C-19.93857422 5.48612549 -19.25214844 5.15975098 -18.54492188 4.82348633 C-12.52412919 2.04869265 -6.70660345 0.02841781 0 0 Z " fill="#A60203" transform="translate(685.75,109.6875)"/>
<path d="M0 0 C-0.71054444 6.29651688 -4.54727861 8.81139652 -9.27001953 12.63867188 C-21.92297808 22.59533245 -35.40432668 31.40003054 -49 40 C-49.83901855 40.53093262 -50.67803711 41.06186523 -51.54248047 41.60888672 C-75.55024846 56.74431875 -100.1888165 70.9597767 -125.21875 84.3359375 C-126.21310059 84.86944824 -127.20745117 85.40295898 -128.23193359 85.95263672 C-130.09520627 86.94921243 -131.96244859 87.9384192 -133.83447266 88.91845703 C-146.18386435 95.52262492 -153.53935873 104.4870297 -157.8125 118 C-159.11935303 123.0702589 -160.12771209 128.21718681 -161.20703125 133.33984375 C-168.6945799 167.90059784 -182.54429546 200.81725938 -204 229 C-204.65742188 229.88171875 -205.31484375 230.7634375 -205.9921875 231.671875 C-221.49895185 251.58328448 -240.61386497 267.497337 -263 279 C-264.0415625 279.54140625 -265.083125 280.0828125 -266.15625 280.640625 C-302.98255829 298.67412648 -345.73958036 301.1295101 -384.44018555 287.9152832 C-398.15914562 282.94321523 -410.28541293 275.61786145 -422 267 C-417.92249546 263.40032802 -412.97205526 262.14221049 -407.90234375 260.51367188 C-402.40019486 258.67130078 -397.38106908 256.22559652 -392.21875 253.58618164 C-387.21371779 251.11973032 -382.06678484 249.02163932 -376.90536499 246.9069519 C-350.56151522 236.09557267 -324.59318701 224.35986395 -298.796875 212.30664062 C-296.12704469 211.05935258 -293.45425931 209.81858116 -290.78125 208.578125 C-280.34086348 203.70814854 -270.12959061 198.48632116 -260 193 C-259.67 193.66 -259.34 194.32 -259 195 C-265.38271605 205.59259259 -265.38271605 205.59259259 -271 208 C-274.54786074 208.34155097 -278.08899433 208.50765445 -281.6484375 208.6875 C-286.39378682 209.12995681 -288.35862848 209.90096041 -292 213 C-294.95643356 216.91916961 -296.72424185 220.62120924 -297.6875 225.4375 C-296.68682207 230.6228311 -294.28575914 234.87772879 -291 239 C-285.43840635 242.48685852 -278.37095361 242.41102927 -272 242 C-269.44496043 240.71711243 -269.44496043 240.71711243 -267 239 C-265.73569096 238.56393679 -264.46397374 238.14905296 -263.1875 237.75 C-249.69823924 232.78027235 -243.78449995 218.05253395 -238 206 C-237.47019531 205.06027344 -237.47019531 205.06027344 -236.9296875 204.1015625 C-235.59581942 201.0863481 -235.06682464 198.04479043 -234.4375 194.8125 C-234.30456543 194.14629639 -234.17163086 193.48009277 -234.03466797 192.79370117 C-233.32359063 189.12573467 -232.84240019 185.53936034 -232.625 181.8125 C-232 178 -232 178 -229.91015625 176.05859375 C-226.59112434 173.7107685 -223.22068638 171.46542934 -219.8125 169.25 C-201.76248175 157.34597461 -181.07559233 141.80065485 -175 120 C-175.38924596 113.81613025 -177.69166753 109.26224401 -180.6484375 103.98632812 C-183.03753307 99.52635668 -183.03753307 99.52635668 -182.8359375 96.69921875 C-182 95 -182 95 -180 93 C-179.608125 93.86625 -179.21625 94.7325 -178.8125 95.625 C-177.13373897 99.06176792 -177.13373897 99.06176792 -174.5625 101.75 C-171.17865544 105.58502383 -169.6846393 110.23783528 -168 115 C-167.01 115 -166.02 115 -165 115 C-164.48902745 109.99246903 -164.29717403 106.33698637 -167.5 102.25 C-167.9640625 101.73953125 -168.428125 101.2290625 -168.90625 100.703125 C-170.47604397 98.25873154 -170.446872 96.86008729 -170 94 C-167.73461914 92.10986328 -167.73461914 92.10986328 -164.53515625 90.3203125 C-163.95982651 89.99106781 -163.38449677 89.66182312 -162.79173279 89.32260132 C-160.89117523 88.23954187 -158.97716208 87.18289103 -157.0625 86.125 C-155.72926564 85.36995902 -154.39724551 84.61277026 -153.06640625 83.85351562 C-150.34873636 82.30389693 -147.62707599 80.76166032 -144.90283203 79.22363281 C-139.37193743 76.08769618 -133.93650163 72.79605933 -128.5 69.5 C-118.92812251 63.72843838 -109.30277292 58.05385872 -99.64950562 52.42001343 C-92.1935744 48.06818318 -84.77342324 43.66707846 -77.39550781 39.18359375 C-12.29925788 -0.32366468 -12.29925788 -0.32366468 0 0 Z " fill="#EF5924" transform="translate(680,119)"/>
<path d="M0 0 C-2.89852938 2.29860121 -5.83178897 4.01209089 -9.125 5.6875 C-21.04480881 12.11687618 -31.3550195 20.97547467 -36 34 C-38.69767127 47.26063086 -35.15500702 58.76168858 -28 70 C-23.99674649 75.5206032 -19.33930519 80.50710407 -14.6796875 85.47265625 C1.10436578 102.41646972 13.47943228 122.6311913 13.15234375 146.36328125 C12.43196683 158.83134341 8.66908242 169.84619469 0 179 C-1.95076193 180.58366012 -3.80002506 181.76586772 -6 183 C-5.80664062 182.46632812 -5.61328125 181.93265625 -5.4140625 181.3828125 C-2.00942381 171.64082655 0.86640046 161.22731684 -2 151 C-2.47179687 152.59328125 -2.47179687 152.59328125 -2.953125 154.21875 C-7.6592722 169.87196582 -13.13294223 182.48241482 -28 191 C-39.91857204 196.69943343 -51.18077736 197.45952229 -63.91796875 193.8515625 C-66 193 -66 193 -67 191 C-66.67 190.01 -66.34 189.02 -66 188 C-65.27579049 181.01655113 -65.28003364 175.3249202 -69.58984375 169.5625 C-71.66508452 167.26306424 -73.02925773 166.01275305 -76 165 C-82.64675344 164.71439731 -88.17119923 167.03737076 -94 170 C-99.94635157 159.39998198 -98.9579007 146.57887774 -96.046875 135.11328125 C-94.40561407 130.23236721 -91.96810546 126.18128995 -89 122 C-88.278125 120.948125 -87.55625 119.89625 -86.8125 118.8125 C-81.3304376 113.3304376 -73.20182891 107.2311924 -65.1875 106.875 C-64.465625 106.91625 -63.74375 106.9575 -63 107 C-66.6193952 113.40354536 -66.6193952 113.40354536 -68.42578125 116.234375 C-75.36711325 127.21136515 -79.75670307 137.80846121 -78 151 C-77.08560211 154.04961425 -75.83600398 156.41262805 -74 159 C-73.29875 160.051875 -72.5975 161.10375 -71.875 162.1875 C-67.04201627 167.69800481 -59.16879816 170.66845282 -52.00390625 171.23828125 C-41.74652741 171.459496 -31.79903988 170.44895856 -23.5 163.875 C-15.20578136 155.63327641 -13.76021451 145.47544267 -12.625 134.3125 C-14.4896208 117.84168294 -30.04004451 105.20510212 -42.17578125 95.43359375 C-50.87913559 87.93402286 -56.43500865 77.34342094 -58.8125 66.1875 C-58.90813517 64.79354489 -58.96454868 63.39678207 -59 62 C-59.05027344 60.87722656 -59.10054688 59.75445312 -59.15234375 58.59765625 C-59.55439237 42.75694048 -55.7463342 30.46219744 -45.4375 18.3125 C-33.11005479 5.37515121 -17.54793421 -0.12379495 0 0 Z " fill="#EF5B26" transform="translate(461,22)"/>
<path d="M0 0 C0 0.66 0 1.32 0 2 C-0.65226562 2.23074219 -1.30453125 2.46148438 -1.9765625 2.69921875 C-10.79539719 5.91842576 -10.79539719 5.91842576 -16.9921875 12.7109375 C-21.64854506 23.57577181 -19.94934024 33.59068183 -15.71875 44.21875 C-14.85938077 46.27723909 -13.98331228 48.32888629 -13.0859375 50.37109375 C-9.31063332 59.51058912 -10.34534629 68.94888322 -13.7421875 78.05859375 C-19.04093136 90.44975564 -26.70512385 100.1213133 -36.46484375 109.32421875 C-45.03507868 117.51535956 -51.17633165 125.65060403 -52.37109375 137.76171875 C-52.56901174 149.46216456 -50.0428155 158.44189325 -43 168 C-42.67 168.66 -42.34 169.32 -42 170 C-46.53442051 168.5793801 -49.42422998 166.07749708 -52.6875 162.75 C-53.20642822 162.22784912 -53.72535645 161.70569824 -54.26000977 161.16772461 C-58.55180835 156.72393438 -62.17478095 151.93380582 -65.61401367 146.80957031 C-71.58492839 137.94526647 -78.87892591 132.99069616 -88.69921875 129.0859375 C-89.53888184 128.75053955 -90.37854492 128.4151416 -91.24365234 128.06958008 C-92.92474837 127.41053036 -94.61384482 126.77145068 -96.31103516 126.1550293 C-102.02791485 123.93037436 -105.17154104 121.49137516 -108 116 C-111.61075776 107.4912657 -110.89291523 97.78812577 -107.92578125 89.16796875 C-106.60034216 86.06409241 -105.13693819 83.61947262 -103 81 C-102.34 81 -101.68 81 -101 81 C-101 80.34 -101 79.68 -101 79 C-95.4174808 75.67424388 -91.50313209 74.53549057 -85 75 C-85.63228516 76.03060547 -85.63228516 76.03060547 -86.27734375 77.08203125 C-86.82519531 77.98308594 -87.37304688 78.88414063 -87.9375 79.8125 C-88.48277344 80.70582031 -89.02804687 81.59914063 -89.58984375 82.51953125 C-92.29851336 87.28408861 -92.63473218 91.63697304 -92 97 C-89.45112226 102.52256844 -85.41655817 105.51452267 -80 108 C-73.95443959 109.94364171 -68.58829199 108.81375404 -63 106 C-54.79226479 100.7671874 -50.11623777 92.38678706 -46.625 83.5 C-43.52067326 66.11577027 -47.33577776 53.32054845 -57.12890625 38.85546875 C-59.79128203 35.40498932 -61.96949088 32.61595338 -65.73828125 30.36328125 C-66.85783203 29.68845703 -66.85783203 29.68845703 -68 29 C-68 28.34 -68 27.68 -68 27 C-61.72984899 24.90994966 -54.20636224 24.89549476 -47.9609375 27.046875 C-44.45315003 28.80594246 -41.26307376 30.82461749 -38 33 C-37.75765625 32.0821875 -37.5153125 31.164375 -37.265625 30.21875 C-34.39551904 19.70974664 -31.44499808 9.30221502 -22.140625 2.67578125 C-15.18470825 -1.05060273 -7.65814224 -0.36323204 0 0 Z " fill="#A60305" transform="translate(394,24)"/>
<path d="M0 0 C-0.598125 0.86625 -1.19625 1.7325 -1.8125 2.625 C-7.82772379 13.17839974 -8.36291116 26.78951174 -5.75390625 38.4296875 C-1.89892605 51.57257336 4.95256262 62.20031755 17 69 C22.8028062 71.25102146 28.83282503 72.31475834 35 73 C27.26499939 78.15666708 17.00167475 78.03609804 8 77 C3.64783013 75.92199218 -0.04135814 74.08559319 -4 72 C-5.76807119 71.08433031 -7.53631639 70.16899658 -9.3046875 69.25390625 C-13.86245275 66.88483038 -18.39853821 64.47761982 -22.92211914 62.04394531 C-28.12631235 59.42931364 -33.29011704 59.49839974 -39 60 C-41.97984167 61.33170309 -41.97984167 61.33170309 -44 63 C-44.66 63 -45.32 63 -46 63 C-46.68774405 64.32258472 -47.34711373 65.65986503 -48 67 C-48.53625 68.0725 -49.0725 69.145 -49.625 70.25 C-51.26661146 74.72712216 -51.45779251 77.26947735 -51 82 C-49.68326167 84.83658587 -49.68326167 84.83658587 -48 87 C-47.505 87.99 -47.505 87.99 -47 89 C-54.81237304 87.8473548 -60.78727761 84.92372765 -67 80 C-67 79.34 -67 78.68 -67 78 C-67.66 78 -68.32 78 -69 78 C-73.89274719 71.47633708 -74.41842574 64.60323082 -73.46875 56.80078125 C-72.06644751 48.42202385 -69.6129424 42.41890336 -64 36 C-63.2575 35.113125 -62.515 34.22625 -61.75 33.3125 C-56.0989918 28.56051583 -48.97865044 25.03255405 -41.55078125 24.68359375 C-40.70322266 24.64169922 -39.85566406 24.59980469 -38.98242188 24.55664062 C-38.10134766 24.51732422 -37.22027344 24.47800781 -36.3125 24.4375 C-34.97348633 24.37272461 -34.97348633 24.37272461 -33.60742188 24.30664062 C-31.40509892 24.20064647 -29.20266527 24.09857949 -27 24 C-26.67128906 23.05640625 -26.67128906 23.05640625 -26.3359375 22.09375 C-23.13834439 13.46284827 -18.69095007 5.21809222 -10.05078125 1.0625 C-6.23604525 -0.51698404 -4.03639139 -1.32149117 0 0 Z " fill="#EF5B25" transform="translate(267,97)"/>
<path d="M0 0 C3.84370365 3.01263259 5.12208256 5.47957794 5.8125 10.3125 C5.3125 13.8125 5.3125 13.8125 3.5 16.8125 C-0.74717845 19.47739628 -3.27010157 18.64152097 -8.08203125 17.97265625 C-10.87987368 17.59122815 -10.87987368 17.59122815 -13.875 19.3125 C-16.26848109 22.61385323 -16.07060817 24.82817504 -15.6875 28.8125 C-14.016875 28.565 -14.016875 28.565 -12.3125 28.3125 C-4.07354449 27.29333138 4.13961197 27.81233933 12.375 28.625 C13.20837891 28.69525391 14.04175781 28.76550781 14.90039062 28.83789062 C22.13235021 29.54138864 30.31544617 30.85329909 35.8359375 35.98828125 C42.24031832 43.90057184 45.58583665 52.72819226 46.3125 62.8125 C46.37824219 63.64136719 46.44398438 64.47023438 46.51171875 65.32421875 C45.83738098 73.74682977 38.04432711 83.43434278 31.921875 88.9765625 C27.60247244 92.53295682 23.4428904 95.57617598 18.3125 97.8125 C17.9825 98.1425 17.6525 98.4725 17.3125 98.8125 C9.57906651 101.07919602 -1.47032544 102.97592167 -9.13671875 99.796875 C-9.64847656 99.47203125 -10.16023438 99.1471875 -10.6875 98.8125 C-10.6875 98.1525 -10.6875 97.4925 -10.6875 96.8125 C-11.55375 96.44125 -11.55375 96.44125 -12.4375 96.0625 C-15.64502293 94.28054282 -18.03820545 92.1110891 -19.6875 88.8125 C-20.09351504 80.42152256 -20.09351504 80.42152256 -17.6875 76.8125 C-17.0275 76.8125 -16.3675 76.8125 -15.6875 76.8125 C-15.6875 76.1525 -15.6875 75.4925 -15.6875 74.8125 C-11.86996478 73.01601284 -8.88890671 72.02473624 -4.6875 72.8125 C-2.00671799 75.43578534 -0.03986232 78.31697746 0.82421875 81.984375 C0.98535156 82.58765625 1.14648438 83.1909375 1.3125 83.8125 C5.00984414 85.66117207 9.2688184 85.14895425 13.3125 84.8125 C19.04251328 82.86645776 22.62785168 79.18853524 25.2890625 73.85546875 C27.25284682 69.05612671 28.37246345 64.66624776 26.5 59.625 C25.37411118 57.77213405 25.37411118 57.77213405 23.8125 56.3125 C22.12767877 54.62767877 21.37043303 52.92836605 20.3125 50.8125 C17.36184396 49.33717198 14.27511081 49.42060895 11.03125 49.19921875 C9.53379974 49.08469384 8.03640548 48.96943476 6.5390625 48.85351562 C4.18758419 48.67527727 1.83615448 48.50161416 -0.51660156 48.34106445 C-21.99264408 46.85485676 -21.99264408 46.85485676 -27.72265625 40.5859375 C-30.63510151 33.78654058 -33.35570308 27.2797854 -30.64453125 20.01953125 C-25.17279085 9.3841109 -13.79006276 -6.09328355 0 0 Z " fill="#030303" transform="translate(215.6875,276.1875)"/>
<path d="M0 0 C-1.49967145 4.2263468 -3.62591501 7.95891086 -5.87890625 11.81640625 C-8.66774855 17.24833253 -9.13287574 24.1747053 -7.3984375 30.03125 C-6.66594746 31.71819675 -5.83530134 33.36152429 -5 35 C-4.71125 35.928125 -4.4225 36.85625 -4.125 37.8125 C-3.15363591 40.23092733 -3.15363591 40.23092733 -0.5 41.25 C0.325 41.4975 1.15 41.745 2 42 C2.66 42.33 3.32 42.66 4 43 C6.9157691 43.41702122 6.9157691 43.41702122 10 43 C12.29215045 41.20808968 12.29215045 41.20808968 14 39 C14.66 38.34 15.32 37.68 16 37 C22.34800827 43.78580194 24.19729691 52.89968015 24 62 C21.12883368 81.32910185 9.71944967 100.4438067 -3 115 C-4.485 115.99 -4.485 115.99 -6 117 C-5.566875 115.38544922 -5.566875 115.38544922 -5.125 113.73828125 C-0.27220768 94.96421642 -1.32383827 79.97758506 -10.94824219 62.76123047 C-13.40337963 58.64995807 -16.26079205 54.80806076 -19.046875 50.91796875 C-24.33739522 43.01393154 -25.86362962 34.36612409 -25 25 C-22.59803155 14.87055589 -17.34833967 7.12211576 -9 1 C-5.8035914 -0.06546953 -3.34252724 -0.07427838 0 0 Z " fill="#A60305" transform="translate(485,67)"/>
<path d="M0 0 C4.25172053 0.76530969 6.16627713 2.46616211 9.125 5.5625 C10.65459264 9.91367131 9.70032887 12.58848318 7.9375 16.75 C7.51082031 17.79542969 7.08414062 18.84085937 6.64453125 19.91796875 C4.98111272 22.81291566 4.09858792 23.30513116 1.125 24.5625 C-2.76349235 30.39523853 -1.56181267 38.67928934 -0.37548828 45.38671875 C0.82241145 51.1456711 2.20308683 56.85697273 3.66601562 62.55395508 C4.125 64.5625 4.125 64.5625 4.125 66.5625 C5.115 66.5625 6.105 66.5625 7.125 66.5625 C7.4653125 65.386875 7.4653125 65.386875 7.8125 64.1875 C12.63243229 50.87530607 12.63243229 50.87530607 18.125 47.5625 C21.76756642 47.5625 23.03263517 48.48302328 25.8125 50.875 C29.26310676 54.88516461 30.28500713 57.4229171 30.375 62.6875 C30.71824735 68.43864441 32.29444535 73.05662635 34.3125 78.375 C37.42868473 86.83065945 37.91101413 93.85765086 35.125 102.5625 C32.35642452 106.01016003 28.86936188 108.35966722 24.4375 108.875 C22.125 108.5625 22.125 108.5625 20.125 106.5625 C19.82053501 101.76210202 20.97205146 97.58514064 23.1875 93.375 C26.35530487 86.76090191 26.38755237 78.91701737 24.359375 71.921875 C23.33574587 69.48240636 23.33574587 69.48240636 21.125 66.5625 C19.05647176 65.82574311 19.05647176 65.82574311 17.125 65.5625 C12.38062464 72.46340961 11.1688406 80.3637079 12.125 88.5625 C13.0887094 92.40927307 14.16094444 96.1653262 15.34765625 99.94921875 C16.1976755 103.90031327 16.04779354 106.644251 15.125 110.5625 C14.135 111.5525 14.135 111.5525 13.125 112.5625 C10.75 112.5625 10.75 112.5625 8.125 111.5625 C-0.01597257 102.40390586 -1.80011203 88.80203245 -3.96875 77.1875 C-4.77927214 72.90134903 -5.8748895 68.78710272 -7.23046875 64.640625 C-7.89994277 62.48207845 -8.36718951 60.33993565 -8.8125 58.125 C-9.54572062 54.63141941 -10.61605344 51.40265712 -11.875 48.0625 C-15.110881 39.36908837 -16.23805532 31.84058031 -15.875 22.5625 C-15.89175781 21.77617187 -15.90851563 20.98984375 -15.92578125 20.1796875 C-15.76407344 13.03966554 -11.80984086 9.35085208 -6.875 4.5625 C-6.18792969 3.82773438 -5.50085938 3.09296875 -4.79296875 2.3359375 C-2.875 0.5625 -2.875 0.5625 0 0 Z " fill="#040404" transform="translate(268.875,242.4375)"/>
<path d="M0 0 C2.5 0.25 2.5 0.25 4.5 2.25 C5.30207824 4.32746766 6.02093463 6.43767248 6.6875 8.5625 C7.05230469 9.69300781 7.41710937 10.82351562 7.79296875 11.98828125 C8.50886891 15.2909146 8.72735721 17.11218631 7.5 20.25 C5.44604492 21.38793945 5.44604492 21.38793945 3.5 22.25 C3.51571045 23.32423218 3.51571045 23.32423218 3.53173828 24.42016602 C4.44370497 97.32555386 4.44370497 97.32555386 -17 123.1875 C-21.28149664 127.55250101 -25.73147941 129.49270234 -31.5 131.25 C-32.33917969 131.61222656 -33.17835938 131.97445312 -34.04296875 132.34765625 C-37.73986269 133.70533908 -40.77475326 133.44239069 -44.5 132.25 C-47.53940778 129.60025988 -48.37609541 127.67592202 -49.5 123.8125 C-49.5 119.14553304 -47.77261265 116.52261265 -44.5 113.25 C-42.12645013 113.11682077 -39.75089041 113.01886611 -37.375 112.9375 C-28.29757407 112.46389517 -23.66675523 110.08343147 -17.5 103.25 C-16.79875 102.5075 -16.0975 101.765 -15.375 101 C-8.12481189 90.36639078 -7.38680422 74.63090915 -8.5 62.25 C-9.97847305 56.39707576 -12.40076918 51.70059347 -16.5 47.25 C-16.99242187 46.6003125 -17.48484375 45.950625 -17.9921875 45.28125 C-21.56647442 40.73515235 -24.71562383 37.920533 -30.36328125 36.3671875 C-33.85430635 36.1757236 -35.83242164 38.18868945 -38.5 40.25 C-41.375 40 -41.375 40 -43.5 39.25 C-43.02944694 31.95642761 -42.03075835 23.83368192 -36.67578125 18.3984375 C-34.5 17.25 -34.5 17.25 -32.0859375 17.3125 C-23.65811205 20.367905 -16.08800074 28.70432583 -11.5 36.25 C-10.8203125 38.51171875 -10.8203125 38.51171875 -10.5 40.25 C-8.85 40.58 -7.2 40.91 -5.5 41.25 C-5.64308594 39.81720703 -5.64308594 39.81720703 -5.7890625 38.35546875 C-6.4030077 31.19515434 -6.57576523 25.08739322 -4.97265625 18.02734375 C-4.22807024 13.65213173 -4.45675116 9.3241335 -4.625 4.90234375 C-4.45487002 1.29239821 -3.60480256 0.36048026 0 0 Z " fill="#040404" transform="translate(439.5,221.75)"/>
<path d="M0 0 C8.11396651 4.82943286 13.93060652 11.94089055 19.44140625 19.453125 C26.67681646 29.14555992 37.51597794 35.52020464 49.44140625 37.453125 C52.04821895 37.67193519 54.64360814 37.86325353 57.25390625 38.015625 C58.29321289 38.08040039 58.29321289 38.08040039 59.35351562 38.14648438 C61.04929311 38.25173953 62.74532677 38.35285363 64.44140625 38.453125 C54.86235269 48.03217856 31.6490231 49.67359213 18.62890625 49.953125 C8.50551486 49.91620779 0.23269383 46.64206616 -7.3515625 39.98046875 C-8.77247458 38.18248615 -9.15931916 36.69002479 -9.55859375 34.453125 C-8.58921875 34.164375 -7.61984375 33.875625 -6.62109375 33.578125 C-3.45195172 32.81097818 -3.45195172 32.81097818 -2.55859375 30.453125 C-2.04238857 24.36190391 -2.59347036 20.24532935 -6.55859375 15.453125 C-13.54151796 9.92497667 -19.91681587 9.97914994 -28.55859375 10.453125 C-31.33371344 10.93961702 -33.85929544 11.62257167 -36.55859375 12.453125 C-36.04978005 8.00100516 -34.57132589 5.73228923 -31.55859375 2.453125 C-21.69670777 -3.56203136 -10.58916057 -4.82716148 0 0 Z " fill="#A60305" transform="translate(114.55859375,299.546875)"/>
<path d="M0 0 C2.91341232 3.14341856 3.90566504 5.24532034 4.4375 9.5 C3.85228019 14.18175845 2.6116586 17.4957853 -0.875 20.75 C-3.17846946 22.10498203 -5.50363738 23.05543036 -8 24 C-9.55695914 25.55695914 -9.16981886 27.01979206 -9.1875 29.1875 C-8.97809817 41.02524733 -6.45151338 51.76531381 -2.5 62.875 C-1.69520876 65.18395377 -0.89305399 67.49382845 -0.09375 69.8046875 C0.2770166 70.87557617 0.6477832 71.94646484 1.02978516 73.04980469 C2.2196075 76.66777479 3.1144451 80.29753711 4 84 C4.78734511 86.22945566 4.78734511 86.22945566 5.625 88 C6.07875 88.99 6.5325 89.98 7 91 C11.44182685 88.0387821 11.86172792 83.92981742 13.42578125 78.96875 C15 76 15 76 18.16796875 74.59375 C19.56982422 74.29984375 19.56982422 74.29984375 21 74 C21.35798553 80.58958546 20.82212506 84.93765728 18 91 C17.58812721 92.95502283 17.19384561 94.91379399 16.8125 96.875 C15.28310759 103.3423775 12.16800195 107.823937 7 112 C4.74609375 112.73828125 4.74609375 112.73828125 3 113 C-0.01571056 107.52704379 -2.074757 102.02237122 -3.99609375 96.07861328 C-5.60922626 91.11011598 -7.35282443 86.20346836 -9.1875 81.3125 C-9.43741699 80.64154297 -9.68733398 79.97058594 -9.94482422 79.27929688 C-10.91277122 76.71466215 -11.89844182 74.20311637 -13.125 71.75 C-14.26826114 69.46347773 -14.7188272 67.08617146 -15.30078125 64.609375 C-16.56377531 59.89607873 -18.20570621 55.29974492 -19.78125 50.68359375 C-20.1834375 49.46800781 -20.585625 48.25242188 -21 47 C-21.37640625 45.86304688 -21.7528125 44.72609375 -22.140625 43.5546875 C-23.1221546 39.49472416 -23.30495897 35.84324376 -23.25 31.6875 C-23.24250732 30.94056885 -23.23501465 30.1936377 -23.22729492 29.42407227 C-23.05590223 20.59112491 -22.40484889 11.70205765 -16 5 C-11.36632669 1.82063484 -5.70712356 -1.49472284 0 0 Z " fill="#030303" transform="translate(385,194)"/>
<path d="M0 0 C2.47330257 2.47330257 2.29746708 3.46232023 2.5 6.875 C2.71620338 10.49640657 3.34034462 12.79970835 5 16 C5.061875 17.11375 5.12375 18.2275 5.1875 19.375 C5.82419218 26.07300169 9.85979992 32.16234345 13 38 C13.99 36.02 14.98 34.04 16 32 C18.01541208 34.18336309 18.94081107 35.59554232 19.375 38.5625 C18.9302389 42.63947675 17.87324572 46.36454779 16.734375 50.296875 C15.85437211 53.53603459 15.37015294 56.66862352 15 60 C13.02 60.495 13.02 60.495 11 61 C7.25860862 54.18268212 4.77037733 47.5708819 3 40 C2.01 40.495 2.01 40.495 1 41 C0.3924705 43.04239932 0.3924705 43.04239932 0.03515625 45.515625 C-0.12533203 46.43730469 -0.28582031 47.35898437 -0.45117188 48.30859375 C-0.77277208 50.25369378 -1.09310586 52.19900367 -1.41210938 54.14453125 C-3.01598456 63.33326637 -3.01598456 63.33326637 -6 67 C-8.375 67.625 -8.375 67.625 -11 67 C-19.8341525 60.37438563 -23.80446122 46.90987778 -25.38671875 36.44140625 C-25.77122491 28.36677688 -23.99882118 18.89372632 -19.0234375 12.43359375 C-16.875 10.3125 -16.875 10.3125 -14.8046875 8.55078125 C-12.76421232 6.93832609 -12.76421232 6.93832609 -11 4 C-10.34 4 -9.68 4 -9 4 C-8.67 3.34 -8.34 2.68 -8 2 C-4.77626323 -0.14915785 -3.73296326 -0.38286803 0 0 Z " fill="#040404" transform="translate(331,269)"/>
<path d="M0 0 C0.5 2.1875 0.5 2.1875 0 5 C-1.45385742 6.18383789 -1.45385742 6.18383789 -3.41796875 7.34765625 C-4.5160083 7.99891479 -4.5160083 7.99891479 -5.63623047 8.66333008 C-9.6563848 10.93665635 -13.71372464 13.12169043 -17.8125 15.25 C-18.79041504 15.75813232 -19.76833008 16.26626465 -20.77587891 16.78979492 C-44.58361827 29.06184431 -68.81372974 40.48026276 -93.25784302 51.42221069 C-97.39049472 53.27261829 -101.51090246 55.14762359 -105.625 57.0390625 C-119.28642319 63.27697896 -133.13729421 68.91746094 -147.125 74.375 C-147.98818848 74.71216034 -148.85137695 75.04932068 -149.74072266 75.396698 C-155.48056404 77.63336683 -161.23290143 79.83459061 -167 82 C-167.81464722 82.30667603 -168.62929443 82.61335205 -169.46862793 82.92932129 C-171.82654659 83.81091036 -174.18929702 84.67774959 -176.5546875 85.5390625 C-177.26384308 85.80431732 -177.97299866 86.06957214 -178.7036438 86.34286499 C-183.65322228 88.11559257 -183.65322228 88.11559257 -187 87 C-186.09636719 86.52949219 -185.19273437 86.05898438 -184.26171875 85.57421875 C-183.07016014 84.94560122 -181.87876228 84.31667891 -180.6875 83.6875 C-179.79514648 83.2244043 -179.79514648 83.2244043 -178.88476562 82.75195312 C-175.54903013 81.05454158 -175.54903013 81.05454158 -172.7902832 78.58911133 C-170.01328608 76.12416188 -166.64353587 75.05653327 -163.21875 73.75 C-162.45002563 73.45061523 -161.68130127 73.15123047 -160.88928223 72.84277344 C-159.2600273 72.21036039 -157.62924398 71.58187284 -155.99707031 70.95703125 C-153.5330756 70.01267661 -151.07490485 69.05430539 -148.6171875 68.09375 C-141.19526804 65.21521652 -133.85867721 62.44237404 -126.10375977 60.57495117 C-123.19411652 59.77975449 -120.64638401 58.424976 -118 57 C-117.34 57 -116.68 57 -116 57 C-116 56.34 -116 55.68 -116 55 C-111.75753029 53.00771385 -107.50745526 51.03301476 -103.24975586 49.07348633 C-101.8055364 48.40594388 -100.36342148 47.73382697 -98.92358398 47.05688477 C-85.39650256 40.70361082 -85.39650256 40.70361082 -79.80859375 40.37109375 C-75.04633812 39.9070791 -74.11481049 38.48695642 -71 35 C-68.60784641 33.62987245 -66.29827577 32.41228476 -63.8125 31.25 C-62.39158319 30.56581791 -60.97102429 29.88089212 -59.55078125 29.1953125 C-58.81037598 28.84114258 -58.0699707 28.48697266 -57.30712891 28.12207031 C-54.9300643 26.96598683 -52.57905157 25.76750773 -50.23046875 24.5546875 C-49.44115967 24.14959961 -48.65185059 23.74451172 -47.83862305 23.32714844 C-46.32038747 22.5467129 -44.8047513 21.76119188 -43.29223633 20.96972656 C-39.85407559 19.22019043 -36.76286927 17.86232886 -32.96875 17.1171875 C-28.87712694 16.21528675 -26.34537123 14.19888969 -23.12011719 11.60449219 C-19.39904176 8.78840425 -15.26506548 6.7528908 -11.125 4.625 C-10.27164063 4.17511719 -9.41828125 3.72523438 -8.5390625 3.26171875 C-2.27339001 0 -2.27339001 0 0 0 Z " fill="#A70709" transform="translate(424,296)"/>
<path d="M0 0 C18.79259071 13.01388085 40.28093638 20.92900974 63.25 20.8125 C64.29704102 20.81193604 65.34408203 20.81137207 66.42285156 20.81079102 C73.29778987 20.72920045 79.39145017 20.08510753 85.984375 18.05859375 C88.54309821 17.46072215 89.92462201 17.63549748 92.375 18.5 C68.98080388 25.84045435 45.46402539 28.53526338 21.375 22.5 C20.14007813 22.2215625 18.90515625 21.943125 17.6328125 21.65625 C2.50281104 18.00743468 -13.63502772 11.15998152 -26.625 2.5 C-26.0625 0.6875 -26.0625 0.6875 -24.625 -1.5 C-14.88882843 -6.55531985 -8.71532219 -6.29478952 0 0 Z " fill="#A80404" transform="translate(297.625,380.5)"/>
<path d="M0 0 C2.625 0.375 2.625 0.375 5 1 C5.66 2.98 6.32 4.96 7 7 C7.66 7 8.32 7 9 7 C14.57446809 24.14893617 14.57446809 24.14893617 16 33 C17.32 33.33 18.64 33.66 20 34 C20.66 32.68 21.32 31.36 22 30 C22.99 30.33 23.98 30.66 25 31 C27.08630309 39.13658206 23.97270894 47.38986511 21 55 C20.67 55.33 20.34 55.66 20 56 C17.66055264 55.71269945 15.3260857 55.38063221 13 55 C12.34 53.35 11.68 51.7 11 50 C10.34 50 9.68 50 9 50 C8.81824219 49.443125 8.63648438 48.88625 8.44921875 48.3125 C8.19785156 47.549375 7.94648438 46.78625 7.6875 46 C7.27951172 44.75863281 7.27951172 44.75863281 6.86328125 43.4921875 C6.11199396 41.32331287 5.26523071 39.23874977 4.375 37.125 C2.75121799 32.93022981 2.47205705 28.78421345 2.2109375 24.3203125 C2.13991838 21.97617064 2.13991838 21.97617064 1 20 C-1.02463255 19.34786708 -1.02463255 19.34786708 -3 19 C-3 19.66 -3 20.32 -3 21 C-4.32 21.33 -5.64 21.66 -7 22 C-9 19 -9 19 -8.80859375 16.171875 C-7.95584652 12.82679891 -6.75765117 10.25070769 -5.0625 7.25 C-4.53785156 6.30640625 -4.01320313 5.3628125 -3.47265625 4.390625 C-2 2 -2 2 0 0 Z " fill="#040404" transform="translate(349,259)"/>
<path d="M0 0 C-2.15498504 2.30882222 -4.3352832 3.95804058 -7.02734375 5.6015625 C-8.20695679 6.3299231 -8.20695679 6.3299231 -9.41040039 7.07299805 C-10.24434326 7.58515869 -11.07828613 8.09731934 -11.9375 8.625 C-34.98467489 22.12576259 -34.98467489 22.12576259 -50 43 C-50.37209601 47.01863693 -50.41420938 49.28309915 -48.375 52.8125 C-42.90690912 57.84889949 -36.14483067 57.34983952 -29.125 57.3125 C-28.09922852 57.31048584 -27.07345703 57.30847168 -26.01660156 57.30639648 C-18.70725341 57.21082327 -12.10704035 56.30465561 -4.96875 54.7265625 C0.3630439 53.63473682 5.75040985 53.55048688 11.17407227 53.34619141 C17.5598775 53.08603142 23.73385673 52.28824902 30 51 C27.23924926 53.76075074 24.10626631 54.18790976 20.421875 55.09375 C19.65885071 55.28594116 18.89582642 55.47813232 18.10968018 55.67614746 C16.48642219 56.08298421 14.86226453 56.48624529 13.23730469 56.88623047 C10.7986955 57.48798386 8.36415045 58.10437208 5.9296875 58.72265625 C-33.1914203 68.53195257 -33.1914203 68.53195257 -50.4375 59.125 C-53.9804639 56.18693237 -55.6458612 54.21068464 -56.38671875 49.5859375 C-56.97392049 40.32119891 -53.41269916 34.96261277 -47.52734375 28.12890625 C-40.26829469 20.27190187 -31.82518002 14.21959551 -22.95214844 8.31591797 C-21.21559996 7.14533314 -19.51499519 5.92182083 -17.8203125 4.69140625 C-11.77181773 0.43347155 -7.40036764 -1.01133007 0 0 Z " fill="#A7080A" transform="translate(207,333)"/>
<path d="M0 0 C0.99 0.33 1.98 0.66 3 1 C2.67 1.66 2.34 2.32 2 3 C0.75383718 6.73848847 0.38437665 10.12385295 1 14 C3.84304528 19.58079258 7.14770772 22.04923591 13 24 C19.5494831 24.68388177 24.9318676 23.4100384 31 21 C28.68596485 27.56028966 24.5080725 32.86296216 18.53125 36.50390625 C13.25201662 38.84208523 8.53544068 40.03145299 3 38 C-3.46338692 34.68791616 -8.08746162 30.94072415 -10.75 24.0625 C-11.67741146 16.41135545 -10.15983839 11.42391709 -6 5 C-4.07311848 2.79853787 -2.51581672 1.58605837 0 0 Z " fill="#A70507" transform="translate(404,146)"/>
<path d="M0 0 C4.1578934 3.38433183 6.73402119 6.01286172 7.6875 11.375 C8.18860231 19.33988933 4.73586095 25.32423224 -0.375 31.1875 C-2.00094818 32.87357166 -3.64716319 34.54032107 -5.3125 36.1875 C-6.05757813 36.95449219 -6.80265625 37.72148437 -7.5703125 38.51171875 C-30.88326446 61.1875 -30.88326446 61.1875 -40.3125 61.1875 C-40.86328125 58.58203125 -40.86328125 58.58203125 -40.3125 55.1875 C-37.68821062 52.62072929 -34.61020593 50.80228794 -31.5 48.875 C-29.74509194 47.73139223 -27.99247431 46.58426186 -26.2421875 45.43359375 C-25.39108398 44.87913574 -24.53998047 44.32467773 -23.66308594 43.75341797 C-14.44806837 37.61453942 -2.93559951 29.05679854 0.6875 18.1875 C1.27321754 13.96143672 1.49961792 10.52926005 -0.75 6.8125 C-12.07184309 -0.36720538 -25.58927767 2.02137815 -38.3125 3.1875 C-38.3125 1.5375 -38.3125 -0.1125 -38.3125 -1.8125 C-25.75324817 -4.11468691 -11.68837235 -6.39552449 0 0 Z " fill="#A70608" transform="translate(490.3125,224.8125)"/>
<path d="M0 0 C-0.52787109 0.67482422 -0.52787109 0.67482422 -1.06640625 1.36328125 C-4.12780031 5.35188604 -6.91872971 9.4087665 -9.5625 13.6875 C-12.07751011 17.6926813 -14.42872479 20.91132955 -18 24 C-18.639375 24.556875 -19.27875 25.11375 -19.9375 25.6875 C-24.87984592 28.83262922 -30.21381097 29.86084545 -36 29 C-41.60359008 27.21070833 -45.42958928 23.96629712 -49.359375 19.68359375 C-51.10746565 17.88971977 -52.96545682 16.45514066 -55 15 C-53.25008666 14.97284617 -51.50005055 14.95353449 -49.75 14.9375 C-48.28820312 14.92009766 -48.28820312 14.92009766 -46.796875 14.90234375 C-44.31161517 14.98911958 -42.38202862 15.37340211 -40 16 C-38.37882216 16.13911097 -36.75185118 16.21959157 -35.125 16.25 C-34.30257812 16.27578125 -33.48015625 16.3015625 -32.6328125 16.328125 C-26.87749305 15.61084483 -22.88225902 12.26419296 -18.625 8.5625 C-12.83340237 3.73092263 -7.84536259 -0.3100401 0 0 Z " fill="#A70607" transform="translate(158,354)"/>
<path d="M0 0 C4.86838328 7.30257492 9.07022266 14.38168864 8.5234375 23.390625 C7.40073407 28.9873854 4.69399415 33.20920618 0.8125 37.3125 C-5.60876541 41.16525924 -12.64372946 43.22856556 -19.80078125 45.2734375 C-22.45995568 46.15195694 -24.66554696 47.46801519 -27 49 C-27.66 49 -28.32 49 -29 49 C-26.69480689 40.80375782 -20.13783726 35.93599325 -13.3125 31.5 C-8.06234775 27.99400111 -4.38310137 25.35842436 -3 19 C-2.29764243 14.55978325 -1.80175582 10.10877658 -1.39453125 5.6328125 C-1 2 -1 2 0 0 Z " fill="#A70608" transform="translate(507,156)"/>
<path d="M0 0 C4.8326087 3.34565217 4.8326087 3.34565217 5.6875 6.6875 C5.790625 7.450625 5.89375 8.21375 6 9 C6.66 9.33 7.32 9.66 8 10 C11.94150786 15.60906887 11.28631708 21.44652008 11 28 C8.125 28.125 8.125 28.125 5 28 C4.34 27.34 3.68 26.68 3 26 C1.34183216 25.31246699 -0.32459336 24.64438717 -2 24 C-2.33 23.67 -2.66 23.34 -3 23 C-4.39151652 27.79300133 -3.68662689 32.15135782 -3 37 C-6.85631556 37.44840879 -8.48496415 37.39240827 -11.625 35 C-17.15411375 28.01585632 -19.10262176 20.62444653 -21 12 C-17.16600092 13.47205604 -15.82247836 15.41874611 -13.8125 18.9375 C-13.30332031 19.81277344 -12.79414063 20.68804687 -12.26953125 21.58984375 C-11 24 -11 24 -10 27 C-9.34 27 -8.68 27 -8 27 C-8.14230808 25.58297487 -8.28900746 24.1663904 -8.4375 22.75 C-8.51871094 21.96109375 -8.59992188 21.1721875 -8.68359375 20.359375 C-8.97634993 18.17635361 -9.42064419 16.1226818 -10 14 C-7.875 13.5625 -7.875 13.5625 -5 14 C-3.35515735 15.64043289 -1.98602685 17.41062399 -0.55859375 19.2421875 C1.59235514 21.66806971 4.02688523 22.7965964 7 24 C6.80664062 23.41992188 6.61328125 22.83984375 6.4140625 22.2421875 C6.15367187 21.46101563 5.89328125 20.67984375 5.625 19.875 C5.3465625 19.05257813 5.068125 18.23015625 4.78125 17.3828125 C4.17151793 15.52312967 3.63379096 13.63979501 3.125 11.75 C1.73203021 8.34496274 -0.35386436 6.50686534 -3 4 C-3 3.34 -3 2.68 -3 2 C-2.01 1.34 -1.02 0.68 0 0 Z " fill="#0E0E0E" transform="translate(460,440)"/>
<path d="M0 0 C2.97 0.495 2.97 0.495 6 1 C6 1.66 6 2.32 6 3 C6.515625 3.2475 7.03125 3.495 7.5625 3.75 C8.366875 4.1625 9.17125 4.575 10 5 C10.57878906 5.29132813 11.15757812 5.58265625 11.75390625 5.8828125 C15.41329111 7.82327963 17.53706651 9.09884403 19 13 C19.556875 13.66 20.11375 14.32 20.6875 15 C22 17 22 17 21.875 19.1875 C21.441875 20.0846875 21.441875 20.0846875 21 21 C18.17283905 21.94238698 16.36823877 22.13465647 13.4375 22.125 C12.65246094 22.12757813 11.86742187 22.13015625 11.05859375 22.1328125 C9 22 9 22 7 21 C7.33 22.98 7.66 24.96 8 27 C8.66 27 9.32 27 10 27 C10.66 28.65 11.32 30.3 12 32 C12.99 32 13.98 32 15 32 C15 32.66 15 33.32 15 34 C14.01 34 13.02 34 12 34 C12 34.66 12 35.32 12 36 C3.35464232 36 -1.57035913 32.59409324 -8 27 C-9.87532348 25.06797128 -11.41610421 23.18468384 -13 21 C-6.65860568 21.40476985 -2.38668261 23.75263126 3 27 C3.66 27.33 4.32 27.66 5 28 C4.21448343 26.68381002 3.4213763 25.37214772 2.625 24.0625 C2.18414063 23.33160156 1.74328125 22.60070312 1.2890625 21.84765625 C0.1226016 19.86227728 0.1226016 19.86227728 -2 19 C-1.67 18.01 -1.34 17.02 -1 16 C5.57315478 15.63482473 10.79485526 16.86380263 17 19 C16.34 18.21625 15.68 17.4325 15 16.625 C13 14 13 14 13 12 C12.34 11.67 11.68 11.34 11 11 C8.94720004 9.39881603 6.94348501 7.73223664 5 6 C5 5.34 5 4.68 5 4 C4.34 4 3.68 4 3 4 C3 4.66 3 5.32 3 6 C1.68 5.67 0.36 5.34 -1 5 C-0.67 3.35 -0.34 1.7 0 0 Z " fill="#0D0D0D" transform="translate(517,374)"/>
<path d="M0 0 C3.625 1.6875 3.625 1.6875 6 4 C6.83622262 7.84662405 6.14427449 9.68740528 4.5 13.25 C1.92336293 16.08430078 0.0794307 17.23830508 -3.69921875 17.95703125 C-8.01323089 18.03759854 -12.09986414 16.79421455 -16 15 C-17.77564811 11.44870378 -17.45594986 7.49219953 -16.3125 3.75 C-11.95687046 -2.05750605 -6.49398742 -1.51215656 0 0 Z " fill="#0B0B0B" transform="translate(314,495)"/>
<path d="M0 0 C-2.79466652 24.33098491 -2.79466652 24.33098491 -7 33 C-7.40863281 33.88171875 -7.81726563 34.7634375 -8.23828125 35.671875 C-12.09256062 43.3587195 -17.34689609 49.59836257 -23 56 C-23 51.96752029 -21.15946974 49.22227022 -19.3125 45.75 C-13.26824358 33.94295661 -9.61723983 22.45994036 -8.1628418 9.2565918 C-7.44020016 3.47364452 -7.44020016 3.47364452 -5.09765625 0.953125 C-3 0 -3 0 0 0 Z " fill="#AA0605" transform="translate(497,285)"/>
<path d="M0 0 C3.375 0.6875 3.375 0.6875 4.98046875 2.8046875 C6.53596539 6.02025197 7.32190042 9.008602 8.0625 12.5 C8.31386719 13.66144531 8.56523437 14.82289063 8.82421875 16.01953125 C9.00597656 16.89996094 9.18773437 17.78039062 9.375 18.6875 C10.035 18.6875 10.695 18.6875 11.375 18.6875 C11.375 19.6775 11.375 20.6675 11.375 21.6875 C8.13228494 21.1284112 6.44442576 20.2742822 4.375 17.6875 C4.375 17.0275 4.375 16.3675 4.375 15.6875 C3.715 15.6875 3.055 15.6875 2.375 15.6875 C2.045 16.6775 1.715 17.6675 1.375 18.6875 C-1.265 18.6875 -3.905 18.6875 -6.625 18.6875 C-8.49841115 15.54016927 -9.625 13.38780541 -9.625 9.6875 C-7.84065078 4.33445234 -5.69274372 1.07965829 0 0 Z " fill="#0B0B0B" transform="translate(259.625,490.3125)"/>
<path d="M0 0 C0.99 0 1.98 0 3 0 C4.35089855 6.00399354 4.2922132 11.29809967 1.625 16.875 C0 19 0 19 -3 21 C-5.04296875 21.1953125 -5.04296875 21.1953125 -7.1875 21.125 C-8.445625 21.08375 -9.70375 21.0425 -11 21 C-11 20.34 -11 19.68 -11 19 C-11.99 18.67 -12.98 18.34 -14 18 C-14.36220266 16.20994059 -14.71452469 14.41787943 -15.0625 12.625 C-15.25972656 11.62726563 -15.45695313 10.62953125 -15.66015625 9.6015625 C-16 7 -16 7 -15 5 C-14.01 5 -13.02 5 -12 5 C-12 4.34 -12 3.68 -12 3 C-10.35 3.33 -8.7 3.66 -7 4 C-6.34 5.98 -5.68 7.96 -5 10 C-4.01 10 -3.02 10 -2 10 C-1.34 6.7 -0.68 3.4 0 0 Z " fill="#0D0D0D" transform="translate(557,298)"/>
<path d="M0 0 C0.625 2.5625 0.625 2.5625 1 5 C0.01 5.33 -0.98 5.66 -2 6 C-2 6.66 -2 7.32 -2 8 C-2.66 8 -3.32 8 -4 8 C-4 8.99 -4 9.98 -4 11 C1.445 10.505 1.445 10.505 7 10 C7.33 10.99 7.66 11.98 8 13 C2.34881157 16.28796418 -2.39732558 18.41311851 -9 17 C-12.41458338 15.25699091 -14.55293619 13.11765952 -16 9.5 C-16 6.27665607 -15.75975735 4.74522146 -14 2 C-8.99148909 -1.48944606 -5.6120729 -2.80603645 0 0 Z " fill="#0B0B0B" transform="translate(423,473)"/>
<path d="M0 0 C0.99 0.33 1.98 0.66 3 1 C4.04119351 3.70123724 4.90328845 6.28814435 5.6875 9.0625 C5.91244141 9.82111328 6.13738281 10.57972656 6.36914062 11.36132812 C6.9237805 13.23766304 7.46332298 15.11844855 8 17 C9.65 14.03 11.3 11.06 13 8 C17.18199633 10.09099816 17.99659367 10.99318733 20 15 C20 15.66 20 16.32 20 17 C21.65 17.66 23.3 18.32 25 19 C24.67 20.65 24.34 22.3 24 24 C20.47808373 23.73911731 19.78724732 22.75685408 17.375 20 C16.59125 19.01 15.8075 18.02 15 17 C14.34 16.67 13.68 16.34 13 16 C12.34 19.63 11.68 23.26 11 27 C9.35 27.33 7.7 27.66 6 28 C5.82871582 27.42556152 5.65743164 26.85112305 5.48095703 26.25927734 C4.69662446 23.63088938 3.91082421 21.00294237 3.125 18.375 C2.85558594 17.47136719 2.58617187 16.56773437 2.30859375 15.63671875 C0.9407195 11.066017 -0.45504108 6.51487996 -2 2 C-1.34 1.34 -0.68 0.68 0 0 Z " fill="#0A0A0A" transform="translate(383,471)"/>
<path d="M0 0 C6.04343004 0.41678828 8.96916193 1.46770944 14 5 C16.31903172 5.85140921 18.59135344 6.42192483 21 7 C20.67 7.66 20.34 8.32 20 9 C16.65506316 9.99444068 14.31044803 10.10348268 11 9 C11.268125 9.721875 11.53625 10.44375 11.8125 11.1875 C12 14 12 14 9.5625 16.8125 C8.716875 17.534375 7.87125 18.25625 7 19 C0.33712984 17.07517084 0.33712984 17.07517084 -2 14 C-3.18823797 10.43528609 -3.26274852 7.7441664 -3 4 C-1.5 1.5625 -1.5 1.5625 0 0 Z " fill="#080808" transform="translate(475,440)"/>
<path d="M0 0 C0.33 3.63 0.66 7.26 1 11 C1.66 11 2.32 11 3 11 C3 10.34 3 9.68 3 9 C3.66 9 4.32 9 5 9 C6.07525194 6.34771188 7.09456151 3.71631546 8 1 C9.32 1.33 10.64 1.66 12 2 C7.5720524 13.58078603 7.5720524 13.58078603 2 17 C-1.62133081 17.88944967 -3.92669389 18.41281004 -7.4375 17.0625 C-8.2109375 16.5365625 -8.2109375 16.5365625 -9 16 C-9 14.68 -9 13.36 -9 12 C-9.66 12 -10.32 12 -11 12 C-11 10.02 -11 8.04 -11 6 C-10.34 6 -9.68 6 -9 6 C-9 4.35 -9 2.7 -9 1 C-5.19495213 -0.79682816 -4.29399165 -1.07349791 0 0 Z " fill="#0A0A0A" transform="translate(542,361)"/>
<path d="M0 0 C3.33727786 1.17255709 5.77437487 2.18868404 8 5 C8 5.66 8 6.32 8 7 C8.598125 7.268125 9.19625 7.53625 9.8125 7.8125 C14.6581134 10.44297585 17.44307092 14.7876722 19 20 C19.03935981 23.73918174 18.62285774 27.31701509 18 31 C16.02 31.66 14.04 32.32 12 33 C11.67 31.68 11.34 30.36 11 29 C11.66 29 12.32 29 13 29 C14.35635254 23.71022511 14.06855749 19.0368911 12 14 C9.741951 11.33940188 7.12774591 9.56387296 4 8 C4.33 9.32 4.66 10.64 5 12 C4.01 12.33 3.02 12.66 2 13 C2 13.66 2 14.32 2 15 C-1.13174424 16.85584844 -3.36744016 17.53159412 -7 17 C-9.8125 15 -9.8125 15 -12 13 C-11.67 11.68 -11.34 10.36 -11 9 C-10.278125 9.309375 -9.55625 9.61875 -8.8125 9.9375 C-5.55433284 11.16836315 -2.4941251 12 1 12 C0.979375 10.88625 0.95875 9.7725 0.9375 8.625 C1 5 1 5 2 3 C1.01 2.67 0.02 2.34 -1 2 C-0.67 1.34 -0.34 0.68 0 0 Z " fill="#0F0F0F" transform="translate(500,421)"/>
<path d="M0 0 C3.44100303 0.10010191 6.18465523 0.43009408 9.1875 2.25 C10.51435296 5.56350713 9.99912294 7.64434919 8.8125 10.9375 C8.53664063 11.72511719 8.26078125 12.51273438 7.9765625 13.32421875 C7.1875 15.25 7.1875 15.25 6.1875 16.25 C1.76757482 16.50499568 -1.97145238 16.62241176 -5.8125 14.25 C-7.42004869 10.23112827 -6.67539727 6.40759593 -5.8125 2.25 C-3.8125 0.25 -3.8125 0.25 0 0 Z " fill="#A70709" transform="translate(261.8125,200.75)"/>
<path d="M0 0 C2.4375 0.25 2.4375 0.25 5 1 C5.66 1.99 6.32 2.98 7 4 C4.03 4.99 1.06 5.98 -2 7 C-1.65775391 9.23910156 -1.65775391 9.23910156 -1.30859375 11.5234375 C-1.01789847 13.47390908 -0.7275519 15.42443264 -0.4375 17.375 C-0.28603516 18.35984375 -0.13457031 19.3446875 0.02148438 20.359375 C0.16005859 21.30039062 0.29863281 22.24140625 0.44140625 23.2109375 C0.57232666 24.08024902 0.70324707 24.94956055 0.83813477 25.84521484 C1 28 1 28 0 30 C-0.99 30 -1.98 30 -3 30 C-3.67076489 27.23010036 -4.33676317 24.45920258 -5 21.6875 C-5.19078125 20.90181641 -5.3815625 20.11613281 -5.578125 19.30664062 C-5.75859375 18.54931641 -5.9390625 17.79199219 -6.125 17.01171875 C-6.37636719 15.96697388 -6.37636719 15.96697388 -6.6328125 14.90112305 C-7 13 -7 13 -7 10 C-7.9075 10.33 -8.815 10.66 -9.75 11 C-13 12 -13 12 -17 12 C-17.38218767 10.34385343 -17.71395102 8.67542976 -18 7 C-16.44655141 5.44655141 -14.77483728 5.69480726 -12.625 5.5 C-9.82678686 5.24478838 -7.69189489 4.8972983 -5 4 C-5 3.01 -5 2.02 -5 1 C-3.68 1 -2.36 1 -1 1 C-0.67 0.67 -0.34 0.34 0 0 Z " fill="#0C0C0C" transform="translate(373,474)"/>
<path d="M0 0 C0.99 0 1.98 0 3 0 C6.96648806 4.44023722 6.41304656 9.51852367 6.3125 15.125 C6.31572266 16.03121094 6.31894531 16.93742187 6.32226562 17.87109375 C6.26744704 24.59882944 6.26744704 24.59882944 4 28 C1.51277859 27.65693498 0.20431829 27.18161626 -1.6875 25.5 C-5.25055947 18.71322006 -4.09916279 11.10769155 -2 4 C-1.36758594 2.65008345 -0.71067711 1.31040462 0 0 Z " fill="#D5D5D5" transform="translate(319,286)"/>
<path d="M0 0 C2.97 0.495 2.97 0.495 6 1 C5.34 3.97 4.68 6.94 4 10 C5.65 10 7.3 10 9 10 C9.268125 9.236875 9.53625 8.47375 9.8125 7.6875 C11.4175408 4.05503923 12.92957304 2.63647009 16.3125 0.625 C19 0 19 0 22.125 1.0625 C25.24978234 3.16833158 26.52429103 4.55667908 28 8 C28.1875 10.8125 28.1875 10.8125 28 13 C26 14 26 14 24 13.5 C20.99907343 11.24930507 20.78968694 8.55359122 20 5 C16.21855319 6.26048227 15.91773579 7.91311081 14.09765625 11.26953125 C12.45697091 13.85609212 10.85730023 14.95464626 8 16 C4.79971805 15.16183092 2.7656567 13.84377113 0 12 C-1.42017195 7.85783181 -0.74930256 4.24604781 0 0 Z " fill="#0B0B0B" transform="translate(535,322)"/>
<path d="M0 0 C0 1.65 0 3.3 0 5 C-3 5 -3 5 -6 3 C-6.99 3 -7.98 3 -9 3 C-9.41986946 5.28836222 -9.41986946 5.28836222 -9 8 C-8.195625 8.78375 -7.39125 9.5675 -6.5625 10.375 C-4 13 -4 13 -2.875 16.5 C-3 20 -3 20 -4.9375 22.875 C-8.85264278 25.59162968 -11.29011551 25.76051435 -16 26 C-16 22 -16 22 -15 20 C-12.67843403 19.59270772 -10.3431213 19.25561323 -8 19 C-8.94464392 16.08734793 -9.51169371 14.36622972 -12 12.5 C-14.55320669 10.58509499 -15.17976864 9.05722599 -16 6 C-15.77789219 3.48277818 -15.27201259 2.33677749 -13.6875 0.375 C-8.49715593 -3.85416924 -5.8390916 -2.63609475 0 0 Z " fill="#080808" transform="translate(250,481)"/>
<path d="M0 0 C4.23422513 3.6461383 4.61915057 7.40969474 5.1171875 12.6953125 C5 15 5 15 3 18 C-0.9970313 18.51813369 -3.11622079 18.67446308 -6.375 16.1875 C-9.55534063 11.90627223 -9.6889467 7.14796283 -9 2 C-6.29446929 -1.40696459 -3.95147792 -1.58059117 0 0 Z " fill="#070707" transform="translate(346,232)"/>
<path d="M0 0 C1 1 1 1 1.09765625 3.28515625 C1.08605469 4.20167969 1.07445312 5.11820313 1.0625 6.0625 C1.05347656 6.98160156 1.04445312 7.90070313 1.03515625 8.84765625 C1.02355469 9.55792969 1.01195312 10.26820313 1 11 C-0.27875 10.938125 -1.5575 10.87625 -2.875 10.8125 C-8.33873391 10.78644086 -12.84674337 12.2580541 -18 14 C-17.67 10.37 -17.34 6.74 -17 3 C-11.28537476 0.0184564 -6.43239876 -0.64077536 0 0 Z " fill="#A60406" transform="translate(188,237)"/>
<path d="M0 0 C0 0.99 0 1.98 0 3 C-0.66 3 -1.32 3 -2 3 C-2.33 6.3 -2.66 9.6 -3 13 C0.03920174 9.96079826 0.44265837 9.26589018 1.1875 5.3125 C1.34605469 4.50425781 1.50460937 3.69601563 1.66796875 2.86328125 C1.77753906 2.24839844 1.88710938 1.63351563 2 1 C2.99 1 3.98 1 5 1 C6.6442351 5.93270529 5.18615592 8.54024193 3 13 C5.92591064 13 7.74756929 11.39801772 10.1484375 9.875 C12 9 12 9 16 9 C14.43989422 13.21228561 11.5154607 15.34546845 8 18 C4.34711807 19.21762731 1.84245864 19.39075851 -2 19 C-4.3324223 17.54350922 -6.01251848 15.93900636 -8 14 C-7.67 13.01 -7.34 12.02 -7 11 C-7.33 10.01 -7.66 9.02 -8 8 C-7.34 8 -6.68 8 -6 8 C-6 7.01 -6 6.02 -6 5 C-5.01 5 -4.02 5 -3 5 C-3 4.01 -3 3.02 -3 2 C-2.01 1.34 -1.02 0.68 0 0 Z " fill="#0E0E0E" transform="translate(575,238)"/>
<path d="M0 0 C1.43739513 -0.02712066 2.87493863 -0.04645067 4.3125 -0.0625 C5.51326172 -0.07990234 5.51326172 -0.07990234 6.73828125 -0.09765625 C9 0 9 0 12 1 C13.36882012 5.51710639 12.52382612 8.59783565 11 13 C10.67 13.33 10.34 13.66 10 14 C8.35130683 13.96219927 6.70405968 13.84529698 5.0625 13.6875 C4.16660156 13.60886719 3.27070312 13.53023438 2.34765625 13.44921875 C0 13 0 13 -2 11 C-2.01171875 8.90625 -2.01171875 8.90625 -1.6875 6.5 C-1.58824219 5.7059375 -1.48898438 4.911875 -1.38671875 4.09375 C-1 2 -1 2 0 0 Z " fill="#EF5D29" transform="translate(94,267)"/>
<path d="M0 0 C0.80050781 0.22042969 1.60101563 0.44085938 2.42578125 0.66796875 C3.23402344 0.88066406 4.04226562 1.09335938 4.875 1.3125 C5.79732422 1.58126953 5.79732422 1.58126953 6.73828125 1.85546875 C6.79238812 3.62596564 6.83112244 5.39693724 6.86328125 7.16796875 C6.88648438 8.15410156 6.9096875 9.14023438 6.93359375 10.15625 C6.73828125 12.85546875 6.73828125 12.85546875 4.73828125 15.85546875 C-2.28816235 16.52465386 -2.28816235 16.52465386 -5.0234375 14.64453125 C-6.71375203 12.20237334 -6.475509 10.77427703 -6.13671875 7.85546875 C-6.05164063 6.98921875 -5.9665625 6.12296875 -5.87890625 5.23046875 C-4.95810774 1.68714283 -3.87172134 -0.2474157 0 0 Z " fill="#EF5D29" transform="translate(199.26171875,199.14453125)"/>
<path d="M0 0 C2.5625 0.375 2.5625 0.375 4.375 2.375 C4.766875 3.035 5.15875 3.695 5.5625 4.375 C5.2325 5.035 4.9025 5.695 4.5625 6.375 C2.2525 6.375 -0.0575 6.375 -2.4375 6.375 C-3.44861093 9.42413228 -3.44861093 9.42413228 -2.4375 12.375 C-2.39727609 14.7079866 -2.39429753 17.04206666 -2.4375 19.375 C-4.4175 20.365 -4.4175 20.365 -6.4375 21.375 C-8.73362756 11.96497722 -8.73362756 11.96497722 -8.4375 7.375 C-9.7575 7.045 -11.0775 6.715 -12.4375 6.375 C-12.4375 5.055 -12.4375 3.735 -12.4375 2.375 C-10.07341793 1.61511648 -8.74736733 1.2929763 -6.3125 1.9375 C-5.69375 2.081875 -5.075 2.22625 -4.4375 2.375 C-2.4375 0.375 -2.4375 0.375 0 0 Z " fill="#0C0C0C" transform="translate(335.4375,490.625)"/>
<path d="M0 0 C0 1.32 0 2.64 0 4 C-0.66 4 -1.32 4 -2 4 C-1.67 5.65 -1.34 7.3 -1 9 C-0.31292969 9.08636719 0.37414062 9.17273438 1.08203125 9.26171875 C1.98308594 9.40222656 2.88414062 9.54273438 3.8125 9.6875 C5.15248047 9.87892578 5.15248047 9.87892578 6.51953125 10.07421875 C9.78601454 11.29336291 10.50937774 12.9345675 12 16 C10.92878906 15.91621094 9.85757813 15.83242188 8.75390625 15.74609375 C7.35679134 15.64295104 5.95965476 15.54010157 4.5625 15.4375 C3.85544922 15.38142578 3.14839844 15.32535156 2.41992188 15.26757812 C0.61572163 15.13809007 -1.19231952 15.06478392 -3 15 C-3.33 15.33 -3.66 15.66 -4 16 C-5.66617115 16.04063832 -7.33388095 16.042721 -9 16 C-8.67 15.154375 -8.34 14.30875 -8 13.4375 C-6.81819252 10.00637634 -6.81819252 10.00637634 -7.0625 6.3125 C-7 3 -7 3 -5.75 1.0625 C-4 0 -4 0 0 0 Z " fill="#0C0C0C" transform="translate(551,278)"/>
<path d="M0 0 C3.71279784 1.44386582 4.9486443 3.12236392 6.75 6.625 C7.17796875 7.44226563 7.6059375 8.25953125 8.046875 9.1015625 C8.51867187 10.04128906 8.51867187 10.04128906 9 11 C9.99 11 10.98 11 12 11 C12.226875 10.113125 12.45375 9.22625 12.6875 8.3125 C14.18389846 4.5358753 15.92491737 2.61382024 19 0 C19.66 0 20.32 0 21 0 C19.50829734 4.9723422 17.39542583 9.41845739 15 14 C14.34 14 13.68 14 13 14 C12.67 14.99 12.34 15.98 12 17 C10.35 17.33 8.7 17.66 7 18 C5.82333996 15.75474054 4.6585926 13.50455858 3.5 11.25 C3.16613281 10.61578125 2.83226562 9.9815625 2.48828125 9.328125 C0.72824467 5.87989007 0 3.95159931 0 0 Z " fill="#0B0B0B" transform="translate(274,494)"/>
<path d="M0 0 C4.12859144 1.37619715 5.20982177 4.1505427 7.25 7.75 C7.62640625 8.37132812 8.0028125 8.99265625 8.390625 9.6328125 C10.09998343 12.61162094 11.04622141 14.48612663 10.734375 17.953125 C10.49203125 18.62859375 10.2496875 19.3040625 10 20 C6.04294544 21.45839897 2.30168612 20.67906093 -1.75 20.0625 C-2.44738281 19.96259766 -3.14476562 19.86269531 -3.86328125 19.75976562 C-5.57651726 19.51334127 -7.28840725 19.25759045 -9 19 C-8.505 17.515 -8.505 17.515 -8 16 C-3.71 16 0.58 16 5 16 C4.23383214 12.1691607 3.55040659 9.71752502 1.9375 6.3125 C0 2.20996441 0 2.20996441 0 0 Z " fill="#0D0D0D" transform="translate(560,252)"/>
<path d="M0 0 C0.66 0.33 1.32 0.66 2 1 C2.625 3.5625 2.625 3.5625 3 6 C0.29265709 8.54808744 -1.33326978 9.90475283 -5.0625 10.4375 C-8.25415543 9.96214706 -9.65625462 9.16345727 -12 7 C-11.65238897 4.4276784 -11.2228621 2.39328607 -9.9375 0.125 C-6.75248198 -1.7243653 -3.48115512 -0.79822665 0 0 Z " fill="#D4D4D4" transform="translate(313,499)"/>
<path d="M0 0 C7.75 -0.125 7.75 -0.125 10 1 C9.85950482 2.47968324 9.71245174 3.95874516 9.5625 5.4375 C9.48128906 6.26121094 9.40007812 7.08492188 9.31640625 7.93359375 C9 10 9 10 8 11 C6.1875 10.9140625 6.1875 10.9140625 4 10.625 C2.9171875 10.48964844 2.9171875 10.48964844 1.8125 10.3515625 C0 10 0 10 -1 9 C-1.23728814 2.47457627 -1.23728814 2.47457627 0 0 Z " fill="#EF5D28" transform="translate(141,254)"/>
<path d="M0 0 C0.66 0 1.32 0 2 0 C2.6708712 1.6232687 3.33657029 3.24867578 4 4.875 C4.556875 6.23238281 4.556875 6.23238281 5.125 7.6171875 C6 10 6 10 6 12 C1.71 12 -2.58 12 -7 12 C-5.57627331 9.15254662 -4.14691055 6.46137713 -2.5 3.75 C-1.86578125 2.69039062 -1.86578125 2.69039062 -1.21875 1.609375 C-0.61546875 0.81273437 -0.61546875 0.81273437 0 0 Z " fill="#EF5F2B" transform="translate(290,246)"/>
<path d="M0 0 C4.8326087 3.34565217 4.8326087 3.34565217 5.6875 6.6875 C5.790625 7.450625 5.89375 8.21375 6 9 C6.66 9.33 7.32 9.66 8 10 C11 15.42307692 11 15.42307692 11 18 C7 18 7 18 5.375 16.875 C4 15 4 15 3.125 12.125 C1.78941452 8.41504033 -0.17084444 6.68025264 -3 4 C-3 3.34 -3 2.68 -3 2 C-2.01 1.34 -1.02 0.68 0 0 Z " fill="#1F1F1F" transform="translate(460,440)"/>
<path d="M0 0 C1.65 0.33 3.3 0.66 5 1 C5.66 2.98 6.32 4.96 7 7 C6.34 7 5.68 7 5 7 C5 9.31 5 11.62 5 14 C1.49113968 12.59645587 0.5732852 11.35634177 -1 8 C-1.99 7.34 -2.98 6.68 -4 6 C-3.67 4.68 -3.34 3.36 -3 2 C-2.01 2 -1.02 2 0 2 C0 1.34 0 0.68 0 0 Z " fill="#171717" transform="translate(545,301)"/>
<path d="M0 0 C-0.66 3.96 -1.32 7.92 -2 12 C-6.03744506 9.98127747 -8.62010675 7.91899872 -12 5 C-10.71735273 2.43470546 -9.77227651 2.33500137 -7.125 1.375 C-6.42632812 1.11460937 -5.72765625 0.85421875 -5.0078125 0.5859375 C-3 0 -3 0 0 0 Z " fill="#A80B0C" transform="translate(159,286)"/>
<path d="M0 0 C2 0.0625 2 0.0625 4 1 C5.68644932 3.89105597 6.06919665 5.48102512 5.625 8.8125 C5.41875 9.534375 5.2125 10.25625 5 11 C3.68 11.33 2.36 11.66 1 12 C-1.37600959 8.53498602 -2.57258316 6.23711541 -2 2 C-1.34 1.34 -0.68 0.68 0 0 Z " fill="#CDCDCD" transform="translate(477,443)"/>
<path d="M0 0 C2.3821875 0.0309375 2.3821875 0.0309375 4.8125 0.0625 C4.1525 3.3625 3.4925 6.6625 2.8125 10.0625 C-5.35714286 4.03571429 -5.35714286 4.03571429 -8.1875 1.0625 C-5.17259443 0.05753148 -3.14568308 -0.04085303 0 0 Z " fill="#EF602D" transform="translate(222.1875,270.9375)"/>
<path d="M0 0 C0 1.98 0 3.96 0 6 C-8.03501094 8.43326039 -8.03501094 8.43326039 -12.0625 6.625 C-12.701875 6.08875 -13.34125 5.5525 -14 5 C-11.16289172 3.10859448 -9.10630649 2.30765115 -5.875 1.375 C-4.98554688 1.11460937 -4.09609375 0.85421875 -3.1796875 0.5859375 C-1 0 -1 0 0 0 Z " fill="#A80C0D" transform="translate(427,229)"/>
<path d="M0 0 C1.67542976 0.28604898 3.34385343 0.61781233 5 1 C3.125 6.75 3.125 6.75 2 9 C-0.5625 9.625 -0.5625 9.625 -3 10 C-3.66 8.68 -4.32 7.36 -5 6 C-4.34 6 -3.68 6 -3 6 C-2.690625 5.195625 -2.38125 4.39125 -2.0625 3.5625 C-1 1 -1 1 0 0 Z " fill="#D3D3D3" transform="translate(258,495)"/>
<path d="M0 0 C-0.2555331 5.86448454 -0.65757571 9.65757571 -5 14 C-5.91377136 9.33976609 -6.40616073 6.21078128 -4 2 C-1 0 -1 0 0 0 Z " fill="#C5C5C5" transform="translate(577,239)"/>
<path d="M0 0 C0 3.28176588 -0.47835901 5.10888212 -2 8 C-3.875 9.0625 -3.875 9.0625 -6 9 C-8.25 7.0625 -8.25 7.0625 -10 5 C-6.7 3.35 -3.4 1.7 0 0 Z " fill="#A90E10" transform="translate(304,278)"/>
<path d="M0 0 C0 2.64 0 5.28 0 8 C-1.32 7.67 -2.64 7.34 -4 7 C-4 5.02 -4 3.04 -4 1 C-4.66 0.67 -5.32 0.34 -6 0 C-3.50907189 -1.24546405 -2.58919267 -0.7767578 0 0 Z " fill="#070707" transform="translate(542,361)"/>
<path d="M0 0 C0.66 0.33 1.32 0.66 2 1 C0.75 3.9375 0.75 3.9375 -1 7 C-3.1875 7.875 -3.1875 7.875 -5 8 C-5.33 6.35 -5.66 4.7 -6 3 C-4.03533587 1.93224776 -2.03144641 0.93446535 0 0 Z " fill="#AA1214" transform="translate(392,240)"/>
<path d="M0 0 C0.99 0.33 1.98 0.66 3 1 C3 1.66 3 2.32 3 3 C2.34 3 1.68 3 1 3 C0.7525 3.61875 0.505 4.2375 0.25 4.875 C-1.20628639 7.35068687 -2.37812506 7.95125002 -5 9 C-4.5206753 4.68607774 -3.2542015 2.83430453 0 0 Z " fill="#D2D2D2" transform="translate(417,473)"/>
<path d="M0 0 C0.99 0 1.98 0 3 0 C4.23076923 6.4 4.23076923 6.4 3.0625 9.4375 C2.711875 9.953125 2.36125 10.46875 2 11 C0 9 0 9 -0.1953125 6.8359375 C-0.17210937 6.02382813 -0.14890625 5.21171875 -0.125 4.375 C-0.10695313 3.55773437 -0.08890625 2.74046875 -0.0703125 1.8984375 C-0.04710937 1.27195312 -0.02390625 0.64546875 0 0 Z " fill="#D5D5D5" transform="translate(535,363)"/>
<path d="M0 0 C2.86477034 1.05041579 3.83913226 1.70124563 5.3125 4.4375 C6 7 6 7 5 10 C1.32769295 6.92000054 0.43197635 4.7517398 0 0 Z " fill="#D2D2D2" transform="translate(544,305)"/>
<path d="M0 0 C0.99 0.495 0.99 0.495 2 1 C1.01 1.495 1.01 1.495 0 2 C0 1.34 0 0.68 0 0 Z M-4 4 C-3.34 4.33 -2.68 4.66 -2 5 C-3.279673 7.55934601 -4.24201036 7.6989233 -6.875 8.6875 C-7.57367188 8.95949219 -8.27234375 9.23148437 -8.9921875 9.51171875 C-11 10 -11 10 -14 9 C-12.38007835 8.13624104 -10.75388139 7.28424146 -9.125 6.4375 C-8.22007812 5.96183594 -7.31515625 5.48617188 -6.3828125 4.99609375 C-5.20332031 4.50302734 -5.20332031 4.50302734 -4 4 Z " fill="#AA1214" transform="translate(251,374)"/>
<path d="M0 0 C1.7074998 1.28062485 3.37373596 2.61767557 5 4 C5 4.66 5 5.32 5 6 C3.02 6 1.04 6 -1 6 C-1.66 4.68 -2.32 3.36 -3 2 C-2.01 1.34 -1.02 0.68 0 0 Z " fill="#111111" transform="translate(460,440)"/>
<path d="M0 0 C1.65 0.33 3.3 0.66 5 1 C5 1.99 5 2.98 5 4 C4.34 4 3.68 4 3 4 C3 4.66 3 5.32 3 6 C1.68 5.67 0.36 5.34 -1 5 C-0.67 3.35 -0.34 1.7 0 0 Z " fill="#090909" transform="translate(517,374)"/>
<path d="M0 0 C1.98 0.66 3.96 1.32 6 2 C5.67 3.65 5.34 5.3 5 7 C3.02 5.35 1.04 3.7 -1 2 C-0.67 1.34 -0.34 0.68 0 0 Z " fill="#303030" transform="translate(460,445)"/>
<path d="M0 0 C3 1 3 1 4.6875 4.0625 C5.120625 5.031875 5.55375 6.00125 6 7 C4.68 7.33 3.36 7.66 2 8 C0 1.125 0 1.125 0 0 Z " fill="#1A1A1A" transform="translate(560,252)"/>
<path d="M0 0 C0.33 0.66 0.66 1.32 1 2 C1.66 2.33 2.32 2.66 3 3 C5 4 5 4 6 6 C4.125 6.625 4.125 6.625 2 7 C0 5 0 5 -0.125 2.375 C-0.08375 1.59125 -0.0425 0.8075 0 0 Z " fill="#242424" transform="translate(522,375)"/>
</svg>
